<svg viewBox="39.84 38.27 528.618664495114 389.28174" version="1.1" id="Layer_1" xmlns="http://www.w3.org/2000/svg" style="max-height: 500px" width="528.618664495114" height="389.28174">
  
  <defs>
    <style>
      .st0 {
        fill: #577abc;
      }

      .st1 {
        stroke: #e4a2a0;
      }

      .st1, .st2, .st3, .st4, .st5, .st6, .st7, .st8 {
        fill: none;
        stroke-linecap: round;
        stroke-linejoin: round;
      }

      .st1, .st5, .st8 {
        stroke-width: .68px;
      }

      .st9 {
        fill: #0769b3;
      }

      .st10 {
        fill: #d01c6a;
      }

      .st11 {
        fill: #171329;
      }

      .st2 {
        stroke: #6b9291;
      }

      .st2, .st3, .st7 {
        stroke-width: 1.35px;
      }

      .st3 {
        stroke: #c6d4d2;
      }

      .st4 {
        stroke-width: .6px;
      }

      .st4, .st5 {
        stroke: #221f1f;
      }

      .st12 {
        fill: #2eb2c1;
      }

      .st13 {
        fill: #fff;
      }

      .st14 {
        fill: #f9a61b;
      }

      .st6 {
        stroke: #3b4f5c;
        stroke-width: 3.05px;
      }

      .st7, .st8 {
        stroke: #313146;
      }

      .st15 {
        fill: #8dc540;
      }
    </style>
  </defs>
  <path d="M191.78,61.62s7.12-.73,12.94,3.53c5.81,4.26,8.85,11.93,9.61,21.42.75,9.49-4.99,27.62-5.58,40.16-.59,12.53-1.07,35.65-1.88,40.76-.81,5.11-10.53,9.98-10.53,9.98l-37.03-11.19-16.69,1.34s1.63-20.93,6.53-34.31c4.9-13.39,5.51-25.68,6.47-33.46.96-7.79,2.93-23.55,9.33-31.15,6.45-7.67,12.52-8.9,17.05-9,5.47-.12,9.77,1.95,9.77,1.95" class="st9"/>
  <path d="M96.53,359.63c-4.58,11.84-8.73,33.1,6.63,55,15.37,21.9,44.58,29.21,68.72,32.86,24.14,3.65,127.93,5.11,127.93,5.11l12.67-79.58-115.37-21.66-100.59,8.27Z" class="st15"/>
  <path d="M258.68,211.18c-22.43-37.32-46.47-37.64-57.25-40.16l-36.91-5.6s-30.1.97-45.41,8.44c-15.31,7.47-33.26,18.5-51.57,41.21-19.12,23.7-29.01,51.59-27.56,85.18,1.64,38.03,32.37,57.28,32.37,57.28l32.39-12.98,45.66,7.06,1.74-14.84s6.63-29.93,7.79-70.58c1.16-40.64-3.7-68.14-3.7-68.14l3.08-31.76,44.2,23.36c2.19,18.38,4.97,38.09,1.77,56.1-3.2,18.01-12.22,51.59-13.08,74.47-.55,14.51-1.38,26.68-1.91,33.63l7.29-2.72s2.44-26.53,4.06-46.97c1.63-20.44,5.22-42.67,5.22-42.67l12.4-11.36,15.15,64.25s51.86,15.58,51.85,3.25c0-12.33-5.16-69.12-27.59-106.44M109.38,313.06l-18.17-8.11,24-57.43-5.84,65.54Z" class="st14"/>
  <path d="M205.29,245.73c-3.2,18.01-12.22,51.59-13.08,74.47-.55,14.51-1.38,26.68-1.91,33.63l-12.89-1.4-25.25-15.68s6.63-29.93,7.79-70.58c1.16-40.64-3.7-68.14-3.7-68.14l3.08-31.76,44.2,23.36c2.19,18.37,4.97,38.09,1.77,56.1" class="st14"/>
  <path d="M164.7,91.44s-2.59-4.99-7.34-5.11c-4.76-.12-6.33,6.09-6.05,9.61.28,3.53,2.55,7.67,6.37,8.15,3.81.49,5.06-2.19,5.06-2.19,0,0,1.29,8.64,1.28,9.98-.02,1.34-4.29,30.3-5.11,36.87-.82,6.57-1.32,17.16-1.32,17.16,0,0-1.65,13.02-1.32,21.78,0,0,13.09,11.31,28.55,10.22,13.8-.97,18.69-8.28,18.69-8.28l-2.09-18.62s-6.76-3.89-4.92-22.15c1.84-18.25,4.72-29.45,4.72-29.45,0,0,2.99-3.77,3.99-4.87,0,0,6.82,1.58,10.03-5.48,3.21-7.06,1.19-9.49-1.39-9.86-2.58-.37-4.81,3.77-4.81,3.77,0,0-.77-15.05-8.26-19.71-7.42-4.62-10.9-8.52-10.9-8.52,0,0-4.3,2.55-12.1,3.89-7.2,1.24-11.82,9-13.1,12.78" class="st13"/>
  <path d="M171.9,87.91c2.09-1.22,7.32-2.01,13.26,2.25" class="st4"/>
  <path d="M193.28,92.05c4.81-1.46,11.64,1.03,13.61,3.65" class="st4"/>
  <path d="M142.63,167.61c-.12,7.67,2.06,19.83,5.06,27.01,3,7.18,8.14,13.63,12.35,13.02,4.21-.61,3.71-8.52,2.87-17.52-.84-9-5.47-15.33-5.33-24.22-4.24-.78-9.46.21-14.95,1.7" class="st9"/>
  <path d="M178.09,97.56c-.75-.16-1.05-.79-.9-1.87.15-1.08.61-1.54,1.36-1.38.75.16,1.05.79.9,1.87-.15,1.08-.61,1.54-1.36,1.38" class="st11"/>
  <path d="M200.76,101.88c-.75-.16-1.05-.79-.9-1.87.15-1.08.61-1.54,1.36-1.38.75.16,1.05.79.9,1.87-.15,1.08-.61,1.54-1.36,1.38" class="st11"/>
  <path d="M190.4,97.89c-.03,1.95.47,5.9.71,7.48s.75,2.5.2,3.29c-.55.79-4.03-.18-4.97-.49" class="st4"/>
  <path d="M164.44,112.67c1.43,4.26,4.23,10.4,12.37,13.99,8.01,3.54,14.08,1.67,17.29.12,4.04-1.95,7.22-7.12,7.22-7.12" class="st4"/>
  <path d="M191.87,62.15c.17,3.65-.92,10.38-1.84,12.57" class="st8"/>
  <path d="M191.11,70.02c-3.45,1.46-11.57,1.38-19.17,6.81-7.6,5.44-8.69,11.19-8.69,11.19" class="st8"/>
  <path d="M191.51,64.83c-5.96-.49-12.87-.65-20.36,5.11-7.49,5.76-9.26,13.22-9.26,13.22" class="st8"/>
  <path d="M191.27,71.97c2.21,2.27,10.84,3.73,14.8,10.71,3.96,6.98,4.21,13.14,4.39,16.55" class="st8"/>
  <path d="M191.78,67.26c4.04,1.78,13.77,4.87,17.03,11.19,3.26,6.33,3.96,15.17,3.68,19.79" class="st8"/>
  <path d="M192.11,63.21c2.85.16,12.84,2.35,17.73,11.84" class="st8"/>
  <path d="M157.2,107.82c-.52,5.68-1.34,17.85-6.44,33.42-5.09,15.58-5.6,29.69-2.41,43.32,3.19,13.63,9.83,19.63,9.83,19.63" class="st8"/>
  <path d="M160.65,112.53c.26,5.35-6.97,34.88-6.91,47.86.06,12.98,3.92,24.82,4.73,30.99.81,6.17,1.24,9.57,1.24,9.57" class="st8"/>
  <path d="M150.93,155.69c-.76,6.81-1.76,24.82,4.72,39.1" class="st8"/>
  <path d="M204.84,119.34c-1.11,4.38-8.26,30.83-5.04,42.83" class="st8"/>
  <path d="M204.95,131.02c-.11,6.81.96,24.34-1.25,35.37" class="st8"/>
  <line y2="350.87" x2="178.25" y1="358.17" x1="209.5" class="st3"/>
  <path d="M190.29,353.83c-.31,4.01-.52,6.28-.52,6.28l-12.37-7.69,12.89,1.4Z" class="st0"/>
  <path d="M234.42,314.36s3.58-12.17,24.17-10.22c20.6,1.95,27.68,13.47,27.68,13.47,0,0-2.86,17.2-12.91,31.56-10.06,14.36-19.59,21.01-21.89,22.63-2.31,1.62-22.1,15.9-33.98,13.47-11.87-2.43-14.91-7.95-12.34-10.38s11.84,0,11.84,0l4.81-15.09s-6.64,6.33-11.12,7.14c-4.48.81-6.21-2.59-5.74-4.87s4.66-4.71,5.85-8.11c1.19-3.41,5.67-8.27,10.44-9.57l13.2-30.02Z" class="st13"/>
  <path d="M91.22,304.96c-8.1-3.98-22.46-10.06-22.46-10.06" class="st8"/>
  <path d="M88.02,310.71c-12.64,6.33-19.59,26.04-21.49,38.94" class="st8"/>
  <path d="M115.22,247.52c5.37-11.03,16.72-33.67,16.72-33.67" class="st8"/>
  <path d="M219.26,250.11c3.21-2.43,4.42-5.6,3.28-7.79s-10.53-19.22-10.53-19.22l4.38-18.5" class="st8"/>
  <path d="M234.15,305.85c2.44-6.08,15.21-13.87,31.65-9" class="st8"/>
  <polyline points="122.26 377.32 112.9 382.02 222.26 412.69 276.64 374.23 221.25 361.09" class="st3"/>
  <line y2="404.09" x2="217.84" y1="376.83" x1="257.54" class="st2"/>
  <line y2="400.19" x2="203.9" y1="372.94" x1="243.6" class="st2"/>
  <line y2="396.3" x2="189.97" y1="369.04" x1="229.67" class="st2"/>
  <line y2="380.24" x2="194.21" y1="365.15" x1="215.73" class="st2"/>
  <line y2="380.07" x2="194.36" y1="314.36" x1="172.6" class="st6"/>
  <path d="M102.44,309.92s-12.33,3.63-20.5,19.21c-8.17,15.58-9.59,28.39-9.59,28.39,0,0,23.96,14.76,39.09,18.33,26.05,6.14,44.44,7.95,44.44,7.95,0,0,3.72,3.89,7.12,3.89s4.64-4.87,4.64-4.87c0,0-.31,2.27,3.52,1.46,3.83-.81,3.16-5.19,3.16-5.19,0,0,.63,1.78,4.15,1.14,3.52-.65,4.53-4.22,4.95-7.14.42-2.92-.84-8.6-4.35-11.84,0,0,6.4,5.03,7.98,8.6,1.58,3.57,5.65,7.79,9.11,8.44,3.46.65,4.58-3.57,2.6-8.11-1.98-4.54-6.26-13.47-13.45-20.28-7.19-6.81-25.82-14.6-34.07-18.33-8.24-3.73-48.81-21.64-48.81-21.64" class="st13"/>
  <path d="M174.33,379.1c-1.31-4.06-6.02-9.25-8.13-11.52" class="st5"/>
  <path d="M167.64,382.83c-1.28-4.22-5.67-9.41-8.1-11.52" class="st5"/>
  <path d="M196.86,368.88c-3.73,1.14-2.6,6.65-1.62,8.44" class="st5"/>
  <path d="M209.68,357.2c1.95,2.6,0,5.68-2.76,7.63" class="st5"/>
  <path d="M313.14,378.91l-26.14-2.68s-15.78,0-28.49-5.33c.07-1.69.15-3.37.23-5.05,3.93-83.07,18.05-117.14,34.47-149.75,8.62-17.12,30.06-30.02,39.57-34.23,9.52-4.22,16.05-3.89,19.4,1.95,3.34,5.84-3.41,11.36-10.98,15.58-7.57,4.21-16.31,12-19.21,17.2,0,0,14.58-7.79,25.56-10.71,10.99-2.92,22.67-2.92,24.36,5.19,1.63,7.84-17.57,11.43-18.87,11.67,1.38-.13,21.44-1.85,23.24,9.75,1.53,9.85-34.72,73.68-63.13,146.43" class="st13"/>
  <path d="M289.96,245.13c5.28.65,12.03-4.87,16.92-9.74,4.89-4.87,10.77-17.2,19.82-14.93,9.05,2.27,8.61,12.37,5.02,19.83-3.58,7.46-7.47,17.64-7.71,35-.21,14.49-17.06,28.88-29.2,25.31" class="st5"/>
  <path d="M320.75,221.2c-3.52,6.69-3.62,14.48,1.22,18.01,4.83,3.53,10.64-1.46,11.5-3.29" class="st5"/>
  <path d="M329.46,183.85c6.29,1.58,13.89-2.68,16.14-4.14" class="st5"/>
  <path d="M352.95,222.74c-4.57.41-16.92,4.67-18.89,7.34" class="st5"/>
  <path d="M326.48,254.42c3.25-2.19,19.44-11.56,27.99-12.29" class="st5"/>
  <path d="M380.51,117.6c.3,2.77.82,5.6,1.7,8.29,3.73,11.36,7.34,16.71,15.57,22.72,8.23,6,24.74,10.71,24.74,10.71l-14.51,65.79,75.84-10.22,3.62-62.79-52.51-88.59-29.78-10.14c-6.59,1.79-15.8,12.17-18.1,22.07-2.3,9.9-2.26,15.25-2.26,15.25,0,0-5.02,2.6-7.21,3.25-2.19.65-3.42,2.43-.57,4.38,2.84,1.95,4,2.11,4,2.11,0,0-.68,3.75-.83,8.94" class="st13"/>
  <path d="M392.98,91.43c-1.26-.25-1.83-1.28-1.7-3.08.13-1.79.84-2.58,2.09-2.33,1.26.25,1.83,1.28,1.7,3.08-.13,1.79-.84,2.58-2.09,2.33" class="st11"/>
  <path d="M388.32,74.94c6.55-.81,14.4,4.71,14.4,4.71" class="st7"/>
  <path d="M406.07,45.15c-5.02,2.13-8.35,6.71-8.86,12.28-.52,5.69-.33,13.14,1.19,22.7,2.52,15.82,9.74,30.34,9.74,30.34,0,0,2.52-12.29,6.03-19.96,3.52-7.67,16.35-8.75,20.24-.32,4.04,8.76,1.97,20.4-5.6,26.85l2.75,8.15s-12.06,15.09-14.01,33.95c-1.96,18.86,9.61,35.05,30.64,40.52,21.03,5.48,29.53-.93,34.47-4.18,4.94-3.25,5.5-11.52,19.6-9.09,14.1,2.43,33.85,1.13,39.37-15.58,6.54-19.79-5.82-40.24-24.57-44.78-14.29-3.46-22.2,1.46-31.6-.97-9.4-2.43,1.85-14.15,4.96-20.77,5.86-12.49,3.92-32.26-12.59-50.05-12.43-13.38-28.68-16.79-44.13-15.82-9.61.61-20.52,3.72-27.62,6.72" class="st10"/>
  <path d="M425.41,92.14c-1.67,3.41-4.91,12.33-5.89,16.06" class="st5"/>
  <path d="M413.27,116.31c4.07,5.19,13.1,4.71,17.04,0" class="st1"/>
  <path d="M412.45,56.93c-4.4,11.19-4.76,23.61-3.91,30.18" class="st8"/>
  <path d="M439.37,126.29c-5.7,6.81-13.06,32.86-4.46,48.67,8.6,15.82,33.5,20.2,41.38,18.98" class="st8"/>
  <path d="M450.82,137.73c-6.69,10.47-3.12,47.7,34.12,49.65" class="st8"/>
  <path d="M467.49,59.12c14.34,13.14,17.37,44.29,4.19,59.14" class="st8"/>
  <path d="M482.29,134.56c8.49-.24,31.63-1.95,42.96,10.46,11.33,12.41,5.42,28.96-7.89,33.34" class="st8"/>
  <path d="M482.49,147.46c11.91,3.65,24.12,17.28,19.63,27.74" class="st8"/>
  <path d="M447.07,72.5c4.16,7.79,11.57,29.45,7.16,46.24" class="st8"/>
  <path d="M393.29,224.12c8.08-10.95,37.41-25.82,60.44-27.74,23.36-1.95,35.28,5.6,35.28,5.6l4.74,25.56-100.46-3.41Z" class="st12"/>
  <path d="M555.25,463.84c4.07-18.92,7.21-43,7.25-68.63.08-63.76-14.05-139.69-60.69-167.44-32.58-19.38-72.92-18.25-91.4-12.41-23.35,7.38-54.6,18.25-78.55,44.05-23.94,25.8-35.8,47.21-51.14,113.41-.23.99-.46,2-.68,3.01-5.76-.55-14.16-1.84-21.53-4.93-3.21,43.58-7.58,71.22-1.21,92.94" class="st12"/>
  <path d="M280.04,375.83c-6.81,29.6-9.16,71.95-10.01,88.01" class="st8"/>
  <path d="M368.89,463.84c8.8-29.52,13.4-65.71,18.23-96.38" class="st8"/>
</svg>