<svg xmlns="http://www.w3.org/2000/svg" id="Capa_1" data-name="Capa 1" version="1.1" viewBox="60.93 110.92 1791.23 401.54">
  <defs>
    <style>
      .cls-1, .cls-2 {
        isolation: isolate;
      }

      .cls-3, .cls-2 {
        fill: #016071;
        stroke-width: 0px;
      }
    </style>
  </defs>
  <g class="cls-1">
    <path class="cls-2" d="M837.27,166.72v-40.93h-153.58v40.73c-9.44-23.07-31.22-40.73-69.84-40.73h-121.91l-48.34,152.23h-.6l-51.1-152.23h-67.61v221.37h44.98v-155.33h.6l53.54,155.33h37.02l53.54-156.87h.6v156.87h48.79v-79.37h50.48c38.62,0,60.4-17.64,69.84-40.74v120.11h48.03v-91.45h91.47v-37.83h-91.47v-51.16h105.56ZM600.68,229.97h-37.32v-66.34h37.32c22.33,0,42.23,4.95,42.23,33.16s-19.89,33.18-42.23,33.18Z"/>
    <rect class="cls-3" x="893.98" y="125.79" width="7.17" height="221.37"/>
    <g>
      <path class="cls-3" d="M965.82,126.4h11.36l28.03,71.99,27.92-71.99h11.34v82.12h-7.7v-70.96h-.23l-27.7,70.96h-7.26l-27.81-70.96h-.21v70.96h-7.73v-82.12Z"/>
      <path class="cls-3" d="M1062.28,126.4h7.72v82.12h-7.72v-82.12Z"/>
      <path class="cls-3" d="M1087.92,126.4h8.64l47.22,69.47h.23v-69.47h7.71v82.12h-8.63l-47.22-69.47h-.23v69.47h-7.73v-82.12Z"/>
      <path class="cls-3" d="M1169.64,126.4h7.72v82.12h-7.72v-82.12Z"/>
      <path class="cls-3" d="M1199.03,181.5c-.34,16.89,11.69,22.09,26.45,22.09,8.52,0,21.46-4.73,21.46-16.69,0-9.31-9.2-13-16.69-14.83l-18.06-4.5c-9.53-2.4-18.26-6.99-18.26-19.76,0-8.06,5.1-23.12,27.91-23.12,16,0,30.09,8.73,29.97,25.54h-7.72c-.46-12.56-10.67-18.88-22.14-18.88-10.54,0-20.29,4.14-20.29,16.33,0,7.72,5.67,10.93,12.25,12.54l19.74,4.94c11.47,3.1,21.01,8.17,21.01,21.62,0,5.64-2.28,23.47-30.99,23.47-19.19,0-33.27-8.73-32.35-28.75h7.71Z"/>
      <path class="cls-3" d="M1259.28,126.4h64.25v6.67h-28.27v75.45h-7.71v-75.45h-28.27v-6.67Z"/>
      <path class="cls-3" d="M1332.25,126.4h55.97v6.67h-48.25v29.67h45.18v6.68h-45.18v32.44h48.81v6.66h-56.54v-82.12Z"/>
      <path class="cls-3" d="M1400.7,126.4h37.11c13.39,0,24.63,6.56,24.63,21.4,0,10.36-5.33,18.84-15.77,20.92v.25c10.55,1.37,13.62,8.73,14.19,18.52.34,5.64.34,16.91,3.74,21.04h-8.5c-1.95-3.22-1.95-9.32-2.17-12.78-.69-11.49-1.59-24.26-16.24-23.68h-29.28v36.46h-7.71v-82.12ZM1408.41,165.39h28.82c9.43,0,17.5-5.96,17.5-15.98s-5.91-16.34-17.5-16.34h-28.82v32.32Z"/>
      <path class="cls-3" d="M1478.09,126.4h7.71v82.12h-7.71v-82.12Z"/>
      <path class="cls-3" d="M1537.79,124.68c25.41,0,38.13,20.36,38.13,42.77s-12.72,42.8-38.13,42.8-38.24-20.36-38.24-42.8,12.69-42.77,38.24-42.77ZM1537.79,203.59c21.34,0,30.42-18.2,30.42-36.14s-9.08-36.11-30.42-36.11-30.53,18.18-30.53,36.11,9.08,36.14,30.53,36.14Z"/>
      <path class="cls-3" d="M966.04,264.41h35.98c14.53,0,24.06,8.63,24.06,23.47s-9.53,23.46-24.06,23.46h-28.26v35.2h-7.72v-82.12ZM973.76,304.66h26.57c10.67,0,18.05-5.52,18.05-16.78s-7.38-16.8-18.05-16.8h-26.57v33.58Z"/>
      <path class="cls-3" d="M1037.89,264.41h7.71v50.83c-.11,19.09,8.86,26.35,23.72,26.35s23.95-7.26,23.84-26.35v-50.83h7.72v52.55c0,16.92-8.97,31.3-31.55,31.3s-31.43-14.38-31.43-31.3v-52.55ZM1068.41,257.84h-5.77l11.9-16.21h8.87l-15,16.21Z"/>
      <path class="cls-3" d="M1117.55,264.41h34.29c13.61,0,25.99,4.82,25.99,20.13,0,8.63-5.66,16.56-14.09,18.4v.24c10.44,1.38,17.15,9.31,17.15,20.02,0,7.81-2.73,23.34-29.05,23.34h-34.29v-82.12ZM1125.26,300.4h26.58c12.35,0,18.26-6.2,18.26-13.91,0-10.23-6.23-15.41-18.26-15.41h-26.58v29.32ZM1125.26,339.85h26.58c11.46.11,21.33-3.8,21.33-16.9,0-10.47-7.83-15.87-21.33-15.87h-26.58v32.77Z"/>
      <path class="cls-3" d="M1194.39,264.41h7.7v75.45h45.4v6.68h-53.11v-82.12Z"/>
      <path class="cls-3" d="M1259.65,264.41h7.72v82.12h-7.72v-82.12Z"/>
      <path class="cls-3" d="M1344.67,289.25c-2.74-12.64-13.06-19.9-24.87-19.9-21.46,0-30.54,18.18-30.54,36.12s9.08,36.13,30.54,36.13c14.98,0,24.52-11.74,25.99-26.35h7.72c-2.17,20.13-14.76,33.02-33.72,33.02-25.55,0-38.27-20.37-38.27-42.8s12.72-42.78,38.27-42.78c15.31,0,30.52,9.31,32.56,26.56h-7.69Z"/>
      <path class="cls-3" d="M1400.36,262.69c25.44,0,38.14,20.35,38.14,42.78s-12.7,42.8-38.14,42.8-38.25-20.37-38.25-42.8,12.72-42.78,38.25-42.78ZM1400.36,341.59c21.35,0,30.42-18.17,30.42-36.13s-9.07-36.12-30.42-36.12-30.52,18.18-30.52,36.12,9.08,36.13,30.52,36.13Z"/>
      <path class="cls-3" d="M1484.35,264.41h51.42v6.67h-43.71v29.65h38.82v6.69h-38.82v39.11h-7.71v-82.12Z"/>
      <path class="cls-3" d="M1546.98,264.41h7.74v82.12h-7.74v-82.12Z"/>
      <path class="cls-3" d="M1576.37,319.48c-.32,16.92,11.7,22.1,26.46,22.1,8.5,0,21.44-4.72,21.44-16.7,0-9.3-9.19-12.99-16.68-14.82l-18.04-4.48c-9.54-2.41-18.28-7.01-18.28-19.78,0-8.06,5.1-23.12,27.93-23.12,16,0,30.08,8.73,29.96,25.52h-7.72c-.46-12.54-10.68-18.87-22.14-18.87-10.55,0-20.32,4.15-20.32,16.34,0,7.7,5.68,10.92,12.26,12.54l19.77,4.95c11.45,3.1,20.98,8.16,20.98,21.62,0,5.63-2.25,23.46-30.97,23.46-19.19,0-33.27-8.76-32.35-28.77h7.71Z"/>
      <path class="cls-3" d="M1704.63,289.25c-2.73-12.64-13.07-19.9-24.85-19.9-21.45,0-30.54,18.18-30.54,36.12s9.08,36.13,30.54,36.13c14.96,0,24.51-11.74,25.99-26.35h7.71c-2.14,20.13-14.75,33.02-33.7,33.02-25.54,0-38.26-20.37-38.26-42.8s12.72-42.78,38.26-42.78c15.31,0,30.52,9.31,32.57,26.56h-7.71Z"/>
      <path class="cls-3" d="M1750.14,264.41h8.61l31.78,82.12h-8.29l-9.87-25.54h-36.88l-9.79,25.54h-8.27l32.7-82.12ZM1737.86,314.33h31.9l-15.67-42.1-16.23,42.1Z"/>
      <path class="cls-3" d="M1799.03,264.41h7.74v75.45h45.39v6.68h-53.13v-82.12Z"/>
    </g>
    <g>
      <path class="cls-3" d="M162.85,150.96c-.65,0-1.18.51-1.18,1.16s.53,1.17,1.18,1.17,1.16-.53,1.16-1.17-.52-1.16-1.16-1.16"/>
      <path class="cls-3" d="M222.34,169.15h-.18c-6.14-.25-11.99-2.47-17.65-4.6-2.3-.89-4.67-1.79-7.04-2.5-4.65-1.51-8.78-2.31-12.66-2.48-1.03-.07-1.96-.09-2.94-.09-2.63,0-6.29.25-8.59,2.48-.65-2.87-1.42-6.11-2.64-9.19-1.16-2.92-2.89-6.39-5.98-7.33-.5-.15-1.03-.23-1.55-.23-3.06,0-5.41,2.79-6.57,4.42l-.51.75c-1.35,1.94-2,2.92-1.82,3.81.21.92,1.32,1.62,3.83,3.06,1.06.62,1.28,2.19,1.41,3.37l.03.13c.24,1.75.34,3.45.31,5.09-3.56-3.67-9.01-5.12-13.92-6.06-1.33-.23-2.71-.37-4.12-.37-5.66,0-11.21,2.12-14.87,3.71-2.07.91-4.14,1.88-6.16,2.88-3.87,1.86-7.87,3.77-12.03,5.05-1.27.39-2.61.69-4.26.98h-.08s-.05.02-.11.02h-.11c-.64.14-1.69.51-1.92,1.45-.21.97-.07,1.6,1.24,2.64,3.05,1.73,6.73,2.56,11.27,2.56.93,0,1.89-.02,2.94-.1,1.36-.08,2.74-.27,4.2-.44,2.08-.27,4.22-.55,6.28-.55,1.42,0,2.66.15,3.78.4,3.39.79,5.39,4.13,7.15,7.07.46.75.87,1.45,1.3,2.08l.03.06c.81,1.22,2.17,3.28,2.08,4.82-.08,1.53-2.15,2.76-3.63,3.67-.42.27-.81.48-1.08.69-.49.32-1.04.68-1.64,1.06-3.38,2.16-8.01,5.12-7.47,9.09.21,1.94,1.85,3.53,3.85,3.77.17.04.36.04.53.04,1.42,0,2.7-.66,3.92-1.3.51-.26,1.04-.54,1.56-.75,1.59-.65,3.23-1,4.85-1,2.72,0,5.34.93,7.78,2.76.82.58,1.53,1.34,2.22,2.02.74.75,1.53,1.55,2.41,2.16.72.53,2.03,1.05,3.15,1.05s1.85-.54,2.04-1.54c.4-1.95.4-4.01.4-6.02-.04-1.59-.04-3.25.16-4.81.12-.95.36-2.93,1.62-3.52.41-.21.88-.3,1.47-.3.63,0,1.31.11,1.94.19.9.16,1.85.31,2.6.19,3.57-.5,6.55-3.4,7.96-7.85.68-1.47,1.47-2.14,2.97-2.5,1.8-.42,2.93-1.9,4.03-3.32.27-.37.54-.71.82-1.04,2.25-2.67,4.96-3.86,8.85-3.86.71,0,1.47.02,2.32.1.79.09,1.6.17,2.37.28,2.06.25,4.03.46,6.06.46,2.16,0,4.08-.3,5.87-.89,4.64-1.53,8.72-4.54,12.47-7.56l.55-.45c1.06-.88,1.28-1.44,1.01-2.42-.28-1.04-1.61-1.26-2.1-1.31M142.36,182.95c-.91-1.53-1.86-3.11-3.01-4.5-2.72-3.31-6.31-4.75-11.67-4.75-2.23,0-4.59.23-6.86.5-2.26.24-4.6.49-6.81.49-1.17,0-2.21-.08-3.17-.21,3.86-1.28,7.57-3.06,11.16-4.78,3.85-1.86,7.85-3.78,12.01-5.05,2.56-.79,5.26-1.2,7.99-1.2,4.97,0,9.59,1.31,13.33,3.76,3.14,2.07,4.03,4.25,2.98,7.34-1.11,3.24-3.06,6.43-5.78,9.51-.17.18-.36.41-.61.68-1.19,1.41-3.13,3.78-4.82,3.78-.5,0-.95-.23-1.35-.68-1.35-1.46-2.39-3.21-3.39-4.9M173.73,187.49c-.38,2.72-1.44,5.06-3.09,6.54-1.48,1.35-3.09,1.62-5.23,1.62-.37,0-.75,0-1.09,0-.37,0-.77-.02-1.17-.02-1.36,0-2.51.48-3.39,1.35-2.58,2.59-2.53,8.31-2.49,12.12v1.23l-.25-.25c-3.26-3-6.32-5.88-10.92-6.58-.7-.13-1.47-.18-2.2-.18-1.4,0-2.88.19-4.35.55-1.31.33-2.43.82-3.59,1.36-.47.18-.92.4-1.37.6-.57.22-1.3.46-1.75.46-.13,0-.22-.01-.28-.08-.02-.05-.02-.13.01-.24.45-1.56,2.13-2.68,3.45-3.56l.37-.23c3.41-2.33,6.59-4.62,9.76-7.09,5.78-4.48,12.14-10.09,15.3-17.71,1.8-4.27,2.56-9.19,2.24-14.22l-.02-.29c-.16-2.05-.28-4.2-1.11-6.08-.68-1.6-1.92-2.31-3.21-3.09-.24-.14-.48-.27-.69-.42.61-1.14,2.3-4.11,4.24-4.11.74,0,1.48.44,2.14,1.37,2.31,3.14,3.37,6.91,4.29,10.25.14.59.33,1.19.51,1.83,1.82,6.47,4.88,17.24,3.89,24.86M213.22,175.29c-3.15,1.79-5.94,2.64-8.62,2.64h-.26c-1.73-.04-3.49-.26-5.21-.51-1.47-.18-2.98-.38-4.47-.44-3.7-.18-6.55.4-8.88,1.79-1.59.95-2.69,2.3-3.77,3.65-.76.96-1.59,1.92-2.57,2.73-.29.25-.68.52-1.04.52h-.02c-.42-.02-.46-.29-.42-.89,0-.16.02-.3,0-.42-.06-1.4-.29-2.78-.45-4.09l-.13-.76c-.32-2.35-.66-4.81-1.25-7.23-.08-.42-.23-.91-.4-1.45-.68-2.13-1.52-4.79.15-6.15,1-.82,2.7-.99,3.83-1.09,0,0,1.31-.1,2.72-.12h.51c1.58,0,3.19.1,4.76.28,2.92.42,6.02,1.17,9.71,2.41,2,.66,4.01,1.41,5.97,2.13,4.52,1.69,9.17,3.43,14.04,4.27-1.55,1.1-2.92,2.02-4.22,2.73"/>
      <path class="cls-3" d="M263.37,211.24c-1.31-8.56-3.44-17.04-6.32-25.21-2.78-7.82-6.27-15.42-10.42-22.61-3.25-5.56-6.92-10.91-11-15.92-5.24-6.37-11.15-12.22-17.68-17.27-6.37-4.9-13.31-9.04-20.7-12.24-7.36-3.14-15.16-5.3-23.07-6.34-8.08-1.08-16.31-.96-24.36.31-7.89,1.22-15.6,3.59-22.88,6.91-7.32,3.37-14.2,7.69-20.45,12.73-6.41,5.19-12.19,11.09-17.27,17.6-5.02,6.33-9.37,13.17-13.05,20.37-3.8,7.51-6.92,15.33-9.31,23.41-2.47,8.42-4.18,17.08-5.1,25.8-.95,9.1-1.08,18.26-.41,27.34.67,8.86,2.09,17.62,4.34,26.15,2.15,8.2,5.03,16.22,8.64,23.88,3.47,7.35,7.62,14.39,12.43,20.96,5.44,7.35,19.17,20.36,19.24,20.36,16.23,13.28,35.88,21.12,57.09,21.12h.01c8.08,0,16.16-1.15,23.93-3.41,7.68-2.24,15.01-5.55,21.84-9.67,6.97-4.25,13.36-9.35,19.13-15.1,5.74-5.76,10.89-12.14,15.31-18.96,4.49-6.88,8.28-14.24,11.39-21.87,3.26-7.91,5.72-16.17,7.46-24.56,1.83-8.78,2.82-17.72,3.04-26.67.19-9.09-.37-18.16-1.84-27.13M82.55,270.43h-2.6l2.32-8.85c.24-.67.37-.63.43-.37-.03,3.2-.1,6.28-.15,9.22M83.84,246.32l-5.24-2.41c-.31-.14-.28-.25.04-.25h11.23c.33,0,.34.11.04.25l-5.02,2.41c-.29.11-.77.11-1.05,0M77.27,241.37l5.86-4.15c-.05,1.35-.05,2.74-.09,4.15h-5.77ZM79.22,227.32h10.01c.27,0,.29.11.05.23l-4.47,2.11c-.27.13-.71.13-.97,0l-4.66-2.13c-.27-.15-.23-.21.04-.21M77.99,225.28l5.37-3.54c-.03,1.12-.04,2.29-.08,3.54h-5.28ZM85.24,221.81l5.33,3.47h-5.29c0-1.16-.03-2.34-.04-3.47M85.48,237.23l5.9,4.14h-5.82c-.04-1.4-.05-2.8-.08-4.14M86.03,270.43c-.05-2.93-.11-6.02-.16-9.18.05-.23.23-.4.39.25l2.37,8.93h-2.6ZM163.09,349.63c-15.58,0-30.26-4.69-43.23-13.08,10.04-.06,20,1.28,29.92,2.76,9.96,1.47,19.89,3.14,29.9,4.14,3.85.39,7.72.69,11.57.84-8.87,3.48-18.35,5.34-28.15,5.34M208.75,334.92c-9.85,1.02-19.82.58-29.66-.51-9.86-1.05-19.62-2.72-29.43-4.14-10.1-1.48-20.24-2.72-30.47-2.66-3.47.05-6.92.23-10.37.55-3.24-2.86-6.32-5.99-9.26-9.35,10.26-1.49,20.64-1.46,30.95-.73,10.36.77,20.63,2.28,30.88,3.8,5.17.77,10.33,1.52,15.46,2.23,2.59.33,12.79,1.12,15.3,1.11,10.28,0,20.63-.78,30.82-2.43-4.42,4.56-9.17,8.63-14.22,12.15M232.21,311.81c-9.9,2.38-20,3.64-30.17,4.17-5.07.28-10.17.42-15.24.17-5.13-.26-10.22-1.08-15.29-1.81-10.21-1.47-20.45-3.11-30.74-4.27-10.24-1.13-20.53-1.74-30.83-1.24-5.6.31-11.21.92-16.72,2-1.89-2.64-3.67-5.37-5.37-8.21,9.08-1.87,18.3-3.09,27.57-3.42,9.4-.34,18.76.32,28.09,1.53,9.01,1.18,17.91,2.82,26.89,4.05,8.24,1.09,16.52,1.82,24.81,1.82h.05c8.62,0,17.24-.76,25.74-2.15,6.21-1,12.39-2.26,18.46-3.87-2.24,3.95-4.66,7.7-7.26,11.24M95.09,280.21c-4.34-2.83-4.92-7.47-4.66-8.35l13.3-31.39c.31-.57.44-.39.34,0l-8.99,39.75ZM103.9,250.61c-.22,14.07-.38,27.14-.46,33.42-2.44-.7-4.83-1.45-6.89-2.92l7.05-31.13c.18-.3.26.16.3.63M100.37,223.06h10.01c.27,0,.3.11.04.24l-4.49,2.13c-.26.15-.68.15-.95.02l-4.66-2.15c-.25-.13-.25-.24.05-.24M99.11,221.04l5.28-3.47c0,1.11-.04,2.27-.04,3.47h-5.24ZM106.49,217.63l5.22,3.41h-5.17c-.02-1.18-.02-2.32-.05-3.41M117.17,263.69c-.15,6.76-.34,13.47-.45,18.67-.04.03-.09.07-.15.08l-4.48-19.38,2.4-5.68,2.67,6.3ZM115.38,255.25l1.79-4.21c.19-.26.28-.18.35.04-.08,2.73-.15,5.62-.23,8.59l-1.91-4.42ZM110.98,265.71l4.29,17.65c-1.5.63-3.37.97-5.01,1.18-.59.09-1.18.13-1.76.17-.36.02-.73.08-1.05.05-.02-2.37-.08-5.95-.14-10.36l3.67-8.69ZM107.26,270.24c-.08-5.85-.18-12.65-.28-19.72.03-.6.17-.99.47-.14l2.91,12.55-3.1,7.31ZM111.45,260.29l-4.56-19.8c-.04-.4.02-.59.33-.02l6.37,14.78-2.14,5.04ZM120.19,266.44v-2.88c-.11-5.15-.27-7.54-.39-12.31.05-.34.18-.55.4-.17l7.96,19.83c-1.31,2.59-1.54,3.5-3.55,5.62l-4.42-10.09ZM123.33,277.81c-.78.9-1.86,1.79-2.76,2.51-.07-2.72-.19-6.21-.25-9.38l3.02,6.87ZM131.41,270.21l9.09-19.51c-.18,5.59-.36,13.63-.51,19.51h-3.72c-1.37,0-3.52.1-4.87,0M196.47,245.21h13.13c.34,0,.4.09.16.23-.06.03-5.97,2.85-5.97,2.85-.41.18-.93.18-1.28.02l-6.13-2.83c-.34-.17-.32-.28.08-.28M194.95,242.59l6.89-4.9c-.03,1.45-.08,4.74-.08,4.9h-6.81ZM197.43,223.22s.15-.05.24-.05h10.96c.1,0,.16.02.21.04h.03l-.03.02c.08.04.03.12-.15.21l-4.93,2.29c-.28.14-.73.14-1.03,0l-5.11-2.3c-.19-.08-.23-.17-.19-.21M196.27,220.87l5.85-4.2c-.03,1.35-.05,2.76-.08,4.2h-5.77ZM204.17,216.74l5.9,4.13h-5.83c-.02-1.42-.05-2.78-.07-4.13M204.45,237.68l6.85,4.9h-6.76c-.01-1.61-.06-3.31-.09-4.9M224.33,232.4h11.24c.29,0,.35.12.06.23l-5.07,2.41c-.28.13-.75.13-1.03,0l-5.24-2.41c-.29-.12-.27-.23.04-.23M222.95,230.1l5.88-4.17c-.03,1.39-.04,2.76-.05,4.17h-5.82ZM231.11,225.95l5.98,4.15h-5.91c0-1.4-.03-2.78-.07-4.15M228.56,250.09c-.21,13.6-.45,28.23-.57,38.52-3.29,1.11-6.19,1.42-8.72,1.19l5.6-24.94,3.31-14.68c.13-.36.31-.54.38-.09M227.78,244.25l-9.75,43.25-4.22-11.62.05-.06,13.32-32c.36-.65.76-1.06.61.43M217.02,289.46c-3.06-.68-5.49-2.16-7.35-3.8l3.19-7.58,4.16,11.38ZM208.47,284.46c-1.89-2.02-2.97-3.98-3.41-4.81-.07-6.56-.22-16.31-.36-26.8l7.37,22.85-3.6,8.76ZM192.38,279.19h-16.07l23.96-27.05-7.89,27.05ZM201.55,252.85c-.08,6.09-.27,25.59-.27,26.34h-7.2l7.46-26.34ZM231.45,250.08c-.03-.43.2-.32.36.1l6.72,29.01c-1.48,3.42-4.42,5.93-6.6,7.39-.06-5.28-.47-36.39-.48-36.49M240.25,279.03l-8.23-34.43c-.24-2.08.3-1.34.71-.58l15.02,35.01h-7.51ZM253.63,262.23c-1.09,5.5-2.53,10.9-4.3,16.21l-17.97-42.68,7.91-3.52c.81-.39.83-1.56.03-1.99,0,0-7.76-5.52-8.2-5.84l-.19-13.06c.97-.13,1.88-.57,2.83-.72,1.06-.13,2.04,0,3.06.21.95.16,1.88.25,2.78-.02.87-.27,1.64-.73,2.34-1.3-2.04-.05-3.7-1.34-5.52-2.18-.92-.39-1.89-.63-2.9-.77-.98-.11-2.14-.17-3.1.14-.09-.77-.19-1.57-.33-2.44h-.4c-.61,3.6-.59,7.52-.63,11.13-.02,2.56-.06,5.11-.1,7.65,0,.46,0,.9-.02,1.35l-8.13,5.82c-.77.4-.81,1.59,0,1.98v.02l7.67,3.52-15.45,37.66-8-24.21,8.84-4.15c.91-.47.95-1.82.02-2.3,0,0-8.32-5.86-9.41-6.64-.06-3.06-.11-6.38-.13-9.27l8.06-3.8v-.02c.81-.35.84-1.55.06-1.99,0,0-7.23-5.11-8.29-5.88-.08-5.94-.14-11.88-.22-17.81.45,0,.92-.17,1.37-.29.5-.14,1.02-.3,1.54-.4,1.03-.17,2.03-.03,3.07.18.97.15,1.95.27,2.92,0,.87-.29,1.63-.73,2.34-1.3-2.05-.07-3.72-1.36-5.53-2.18-.91-.42-1.88-.66-2.89-.78-.98-.1-2.13-.17-3.08.11-.09-.76-.2-1.55-.33-2.43h-.4v.04c-.57,3.29-.62,6.59-.64,9.91-.02,3.03-.02,6.02-.08,9.07-.04,1.96-.05,3.93-.08,5.88l-8.2,5.84c-.82.44-.82,1.63,0,2.03l8.02,3.81h.03c-.03,2.85-.07,6.23-.14,9.27l-9.38,6.59c-.95.49-.95,1.85,0,2.34l8.66,4.12-27.05,30.01c-.52,0-3.87.03-4.34.63-.73.59-.75,1.43-.44,2.16.4.97,1.22,1.66,2.11,2.19.46.26.96.5,1.45.71.05.02.11.08.15.13,0,0,2.45,8.07,12.84,11.87,0,0,.28.08.2.31-.01.05-.04.07-.07.11-.08.03-.17.05-.28.07-9.94-.62-19.75-2.27-29.56-3.8-3.78-.61-7.52-1.18-11.29-1.67-2.55-.33-5.08-.6-7.61-1.09-.25-.08-.37-.16-.43-.25v-.05s-.01-.06-.01-.06v-.03c.03-.07.09-.14.13-.18.06-.04.08-.07.08-.07,13.85-4.12,16.73-14.2,16.73-14.2.2-.1.36-.18.54-.28.4-.17.77-.34,1.09-.53.9-.53,1.75-1.21,2.12-2.16.31-.76.25-1.6-.41-2.17-.54-.66-4.45-.66-4.45-.66v.04h-.69c-.03-2.18-.08-7.74-.2-11.37.41.17.89.03,1.3-.08.52-.17,1.02-.32,1.55-.42,1.07-.25,2.09-.2,3.16,0,1.05.19,2.08.34,3.13.08.92-.24,1.73-.74,2.44-1.31-2.08-.06-3.75-1.44-5.6-2.24-1-.43-2.03-.67-3.07-.73-.99-.09-2.22-.17-3.12.24-.07-.86-.16-1.59-.24-2.14h-.39c-.54,3.08-.56,13.82-.57,17.98l-6.94.02c-.23-7.56-.55-17.69-.74-24.15l6.02-12.91c.83.36,1.8.43,2.63.75.95.3,1.72.87,2.44,1.5.76.61,1.48,1.18,2.39,1.48.98.33,1.99.28,3.02.11-1.73-1.02-2.54-2.92-3.65-4.48-.58-.83-1.29-1.52-2.09-2.11-.83-.63-1.82-1.28-2.82-1.53.21-.67.53-1.65.55-2.09-.02-.08,0-.21-.17-.32-.03,0-.07-.03-.11-.03-.27.04-.34.21-.54.44-.53.66-1.25,1.95-1.36,2.17l-6.42,13.78c-.07-2.19-.11-4.36-.12-6.55-.02-2.71-.15-5.44-.61-8.11h-.37c-.58,3.26-.59,6.56-.62,9.91-.04,2.97-.13,5.96-.24,8.94l-11.06,22.9-9.89-24.28c-.05-3.01-.15-6.02-.19-9.03-.04-3.41-.04-6.82-.63-10.21h-.37c-.57,3.33-.57,6.67-.63,10.06-.05,3.04-.12,6.1-.2,9.16l-3.17,7.49-7.75-18.04c-.04-3-.06-5.96-.13-8.83l7.05-3.32c.72-.35.75-1.39.03-1.76,0,0-5.95-4.29-7.23-5.17-.07-6.22-.12-12.43-.21-18.65.46,0,.87-.17,1.34-.29.48-.14,1.01-.3,1.53-.4,1.05-.17,2.05-.03,3.05.18.99.15,1.95.27,2.94,0,.89-.29,1.64-.73,2.35-1.3-1.99-.07-3.67-1.3-5.38-2.13-.91-.42-1.91-.72-2.91-.81-1.01-.12-2.17-.21-3.19.09-.08-.83-.18-1.63-.33-2.43h-.38c-.69,3.96-.62,7.96-.67,11.99-.02,3.85-.08,7.73-.13,11.59-.05.72-.05,1.44-.05,2.17l-7.19,5.13c-.72.38-.74,1.43,0,1.8l7.04,3.32c-.03,3.21-.12,8.47-.12,8.83l-14.35,33.72-2.1-7.74h1.84v-.02h.92c.41,0,.84-.13,1.2-.25.28-.09.94-.31.94-.69,0-.35-.59-.55-.81-.66-.42-.14-.86-.28-1.32-.28h-3.26l-1.42-5.35c-.04-2.18-.08-4.4-.11-6.56l7.91-3.72c.81-.43.81-1.59.04-1.99,0,0-7.61-5.4-8.17-5.77,0-1.57-.04-3.76-.07-5.19l7.14-3.36c.72-.37.73-1.42.04-1.82,0,0-6.34-4.53-7.34-5.22-.07-5.2-.11-8.67-.14-9.06.82.08,1.72-.4,2.5-.56.9-.16,1.79-.05,2.67.08.87.16,1.73.27,2.6.08.83-.2,1.56-.64,2.23-1.19-1.82-.03-3.31-1.17-4.9-1.91-.81-.36-1.71-.59-2.61-.67-.87-.09-1.91-.18-2.75.17-.09-.7-.18-1.4-.34-2.16h-.38c-.57,2.84-.59,5.71-.61,8.59-.02,2.48-.06,4.17-.12,6.64l-7.3,5.21c-.73.38-.73,1.44,0,1.8l7.14,3.39c-.03,1.45-.03,3.64-.08,5.19l-8.03,5.75c-.81.37-.81,1.57,0,1.98l7.85,3.75c-.05,2.16-.09,4.33-.14,6.5l-1.4,5.4h-3.28c-.43,0-.86.1-1.21.24-.28.11-.92.32-.92.7s.58.58.82.64c.4.17.88.31,1.31.31h.89l.03.02h1.84l-2.46,9.38h-3.97c-2.41-9.06-3.85-18.33-4.37-27.66-.52-9.33-.13-18.71,1.18-27.98,1.22-8.6,3.25-17.09,6.12-25.29,2.71-7.79,6.18-15.35,10.39-22.43,2.21-3.74,4.63-7.35,7.3-10.83,10.74,3.61,24.63.31,24.63.31,12.51-2.24,20.31-1.91,24.85-1.2l2.43.45c.27-1.55.44-2.66.9-4.11-13.1-4.13-27.83-2.13-27.83-2.13-8.93.82-14.36-1.01-17.17-2.56,0,0,5.63-5.98,10.21-9.3,4.06,2.91,9.15,4.36,13.92,5.2,3.14.58,6.34.79,9.47,1.54,3.19.71,6.34,1.65,9.41,2.72,1.1.39,2.54,1.09,3.18,1.38.57-1.26,1.39-2.44,2.2-3.59l-2.04-1.31c-4.05-2.29-7.85-3.48-12.12-4.77-2.84-.89-5.6-1.86-8.27-3.24-3.63-1.88-5.87-4.32-6.07-4.47,0,0,6.22-3.82,12.09-5.98,2.71,3.84,7.73,5.99,11.19,8.94,4.84,4.13,7.42,8.03,7.65,8.44,1.13-.86,2.22-1.47,3.68-2.06-1.94-4.23-4.7-9.13-8.03-12.21-1.5-1.42-3.79-3.86-4.41-6.3,0,0,7.8-1.95,13.82-2.05l2.21,19.73c.84-.17,2.11-.15,2.11-.15,0,0,.78-.02,2.1.15l2.23-19.71s5.3.24,9.63,1.12c2.41.47,4.22.93,4.22.93-.71,2.4-2.89,4.91-4.39,6.29-3.38,3.14-6.01,7.98-7.95,12.26,1.13.52,2.44,1.02,3.63,2.01,2.28-3.39,5.07-6.24,7.65-8.44,3.35-2.93,8.42-5.2,11.11-8.94.69.25,3.74,1.41,8.57,3.9l3.61,2.06c-.11.1-4.13,3.38-6.11,4.49-2.59,1.48-5.4,2.35-8.24,3.24-4.29,1.29-8.09,2.48-12.15,4.77l-2.04,1.3c.81.99,1.57,2.22,2.24,3.59.72-.35,2.11-1.02,3.14-1.37,3.1-1.07,6.25-2,9.44-2.72,3.11-.75,6.29-.96,9.46-1.54,4.72-.83,9.85-2.35,13.87-5.2,5.08,3.93,10.25,9.32,10.25,9.32-2.84,1.55-8.27,3.36-17.16,2.54,0,0-14.73-2.02-27.8,2.07.39,1.26.55,2.12.84,4.02l2.6-.42c4.63-.66,12.23-.93,24.71,1.31,0,0,13.84,3.29,24.58-.27,1.08,1.37,2.13,2.81,3.11,4.25,4.62,6.68,8.48,13.86,11.64,21.32,3.33,7.88,5.83,16.1,7.59,24.46,1.82,8.8,2.75,17.81,2.86,26.77.11,9.8-.79,19.58-2.68,29.15"/>
    </g>
  </g>
  <g>
    <path class="cls-2" d="M369.8,463.65c-2.56-11.32-9.57-15.65-20.89-15.65-16.03,0-22.94,13.72-22.94,29.38,0,14.82,5.44,29.75,23.49,29.75,11.42,0,18.53-7.74,21-18.24h6.55c-2.96,12.8-10.97,23.57-28.75,23.57-20.44,0-28.54-16.11-28.54-34.91,0-25.33,13.25-34.9,30.85-34.9,13.63,0,23.58,7.27,25.7,20.99h-6.47Z"/>
    <path class="cls-2" d="M391.72,452.6v-8.2h6.08v8.2h-6.08ZM392,510.72v-47.71h5.53v47.71h-5.53Z"/>
    <path class="cls-2" d="M446.7,463.01h5.53v47.71h-5.53v-6.62c-2.95,3.31-7,7.92-15.37,7.92-12.72,0-16.94-7.64-16.94-17.59v-31.41h5.52v31.32c0,8.19,3.59,12.71,12.24,12.71,9.12,0,14.55-7.56,14.55-18.04v-25.99Z"/>
    <path class="cls-2" d="M505.19,444.41h5.54v66.31h-5.54v-8.38h-.17c-3.23,6.26-10.5,9.67-16.58,9.67-15.39,0-21.55-10.96-21.55-25.06,0-13.36,6.73-25.23,21.27-25.23,6.73,0,13.55,3.13,17.04,8.93v-26.25ZM489.07,466.69c-11.42,0-16.77,9.67-16.3,21.66.09,11.96,7.01,18.69,16.3,18.69,10.41,0,16.11-8.84,16.11-20.34,0-10.8-6.07-20.01-16.11-20.01Z"/>
    <path class="cls-2" d="M549.3,482.9c2.03-.17,5.45-.73,7.28-1.56,1.86-.83,2.03-3.32,2.03-4.98,0-5.61-3.31-9.67-11.88-9.67-7.64,0-12.89,2.5-13.9,10.78h-5.62c.83-11.23,9.21-15.75,19.61-15.75,9.68,0,17.32,3.77,17.32,14.82v25.98c0,4.32,1.11,5.34,5.81,3.69v4.32c-.83.28-2.76.94-4.33.94-.92,0-1.66-.1-2.5-.29-3.67-.55-4.33-3.78-4.42-7.09-4.61,5.15-10.87,7.92-17.77,7.92-8.38,0-15.94-4.52-15.94-13.73,0-8.01,5.55-12.89,16.68-14.37l7.63-1.01ZM558.6,485.67c-4.69,1.94-9.48,2.31-14.27,2.68-8.38.65-13.45,3.68-13.45,10.13,0,5.8,5.06,8.56,10.32,8.56,8.74,0,17.39-4.23,17.39-13.91v-7.46Z"/>
    <path class="cls-2" d="M618.21,444.41h5.51v66.31h-5.51v-8.38h-.19c-3.21,6.26-10.49,9.67-16.58,9.67-15.38,0-21.56-10.96-21.56-25.06,0-13.36,6.72-25.23,21.27-25.23,6.73,0,13.54,3.13,17.05,8.93v-26.25ZM602.08,466.69c-11.42,0-16.76,9.67-16.3,21.66.1,11.96,7,18.69,16.3,18.69,10.41,0,16.13-8.84,16.13-20.34,0-10.8-6.09-20.01-16.13-20.01Z"/>
    <path class="cls-2" d="M662.13,510.72l26.06-66.31h7.1l25.42,66.31h-6.45l-7.64-20.81h-30.21l-7.83,20.81h-6.45ZM678.53,484.56h25.97l-12.99-34.82-12.98,34.82Z"/>
    <path class="cls-2" d="M763.9,463.01h5.53v47.71h-5.53v-6.62c-2.94,3.31-7,7.92-15.38,7.92-12.71,0-16.95-7.64-16.95-17.59v-31.41h5.53v31.32c0,8.19,3.59,12.71,12.24,12.71,9.12,0,14.56-7.56,14.56-18.04v-25.99Z"/>
    <path class="cls-2" d="M802.31,510.91c-1.3.27-3.69,1.1-6.35,1.1-5.43,0-8.48-2.4-8.48-9.49v-34.9h-6.73v-4.61h6.73v-13.26h5.53v13.26h8.93v4.61h-8.93v32.69c0,4.7.18,6.73,4.8,6.73,1.46,0,3.02-.27,4.5-.64v4.51Z"/>
    <path class="cls-2" d="M810.78,486.86c0-13.9,7.37-25.14,22.11-25.14s22.11,11.13,22.11,25.14c0,15.11-8.75,25.15-22.11,25.15-12.17-.18-22.11-8.48-22.11-25.15ZM832.89,466.69c-11.6,0-16.21,9.86-16.21,20.17,0,11.89,5.61,20.18,16.21,20.18,11.6,0,16.21-9.94,16.21-20.18-.09-11.22-4.52-20.17-16.21-20.17ZM827.64,457.86l10.21-12.81h7.1l-12.63,12.81h-4.69Z"/>
    <path class="cls-2" d="M873.42,510.72h-5.53v-47.71h5.53v6.63c4.41-4.7,8.75-7.92,15.37-7.92,5.81,0,11.16,1.85,14.56,6.81,2.31,3.41,2.38,6.99,2.38,10.97v31.21h-5.51v-31.13c0-8.55-3.52-12.9-12.35-12.9-6.81,0-11.51,4.43-13.26,9.31-1.1,3.05-1.2,5.71-1.2,9.03v25.69Z"/>
    <path class="cls-2" d="M918.73,486.86c0-13.9,7.36-25.14,22.1-25.14s22.12,11.13,22.12,25.14c0,15.11-8.75,25.15-22.12,25.15-12.15-.18-22.1-8.48-22.1-25.15ZM940.82,466.69c-11.6,0-16.21,9.86-16.21,20.17,0,11.89,5.62,20.18,16.21,20.18,11.62,0,16.21-9.94,16.21-20.18-.08-11.22-4.5-20.17-16.21-20.17Z"/>
    <path class="cls-2" d="M980.62,510.72h-5.53v-47.71h5.53v7.19h.19c2.85-5.44,8.57-8.48,14.73-8.48,8.85,0,11.98,4.14,13.99,9.21,3.16-6.17,8.76-9.21,15.59-9.21,12.98,0,14.82,9.31,14.82,18.88v30.11h-5.53v-32.97c0-6.82-2.39-11.06-10.23-11.06-4.04,0-8.01,1.75-10.77,5.44-2.39,3.13-3.12,8.95-3.12,12.9v25.69h-5.54v-32.97c0-6.82-2.38-11.06-10.22-11.06-4.05,0-8.01,1.75-10.78,5.44-2.39,3.13-3.13,8.95-3.13,12.9v25.69Z"/>
    <path class="cls-2" d="M1077.23,482.9c2.04-.17,5.44-.73,7.27-1.56,1.87-.83,2.03-3.32,2.03-4.98,0-5.61-3.31-9.67-11.88-9.67-7.64,0-12.89,2.5-13.9,10.78h-5.62c.83-11.23,9.22-15.75,19.61-15.75,9.68,0,17.33,3.77,17.33,14.82v25.98c0,4.32,1.1,5.34,5.8,3.69v4.32c-.83.28-2.77.94-4.32.94-.93,0-1.66-.1-2.48-.29-3.69-.55-4.35-3.78-4.44-7.09-4.62,5.15-10.87,7.92-17.77,7.92-8.39,0-15.95-4.52-15.95-13.73,0-8.01,5.54-12.89,16.67-14.37l7.65-1.01ZM1086.53,485.67c-4.7,1.94-9.48,2.31-14.27,2.68-8.38.65-13.44,3.68-13.44,10.13,0,5.8,5.06,8.56,10.3,8.56,8.76,0,17.42-4.23,17.42-13.91v-7.46Z"/>
    <path class="cls-2" d="M1173.11,444.41h5.53v66.31h-5.53v-8.38h-.18c-3.22,6.26-10.51,9.67-16.58,9.67-15.37,0-21.54-10.96-21.54-25.06,0-13.36,6.71-25.23,21.26-25.23,6.72,0,13.54,3.13,17.04,8.93v-26.25ZM1157.01,466.69c-11.44,0-16.78,9.67-16.31,21.66.08,11.96,6.99,18.69,16.31,18.69,10.4,0,16.1-8.84,16.1-20.34,0-10.8-6.09-20.01-16.1-20.01Z"/>
    <path class="cls-2" d="M1198.71,488.16c-.1,10.31,5.43,18.88,16.02,18.88,7.2,0,12.82-3.96,14.47-10.96h6.18c-2.76,9.03-8.48,15.94-20.64,15.94-15.29,0-21.92-10.87-21.92-24.96s8.28-25.33,21.92-25.33,21.1,9.31,20.99,26.44h-37.02ZM1229.85,483.55c0-9.3-5.15-16.87-15.11-16.87s-14.91,7.85-16.02,16.87h31.14Z"/>
    <path class="cls-2" d="M1277.09,510.72v-66.31h23.95c15.57,0,21.74,6.72,21.74,16.67,0,9.21-5.25,13.36-10.58,14.28v.17c9.11,1.39,13.62,7.75,13.62,16.5,0,13.82-9.02,18.69-21.64,18.69h-27.09ZM1283.34,473.7h15.85c13.09,0,17.33-4.61,17.33-12.63s-4.98-11.33-18.7-11.33h-14.48v23.96ZM1283.34,505.39h15.95c13.82,0,20.26-1.86,20.26-13.37s-7.74-12.98-19.53-12.98h-16.69v26.35Z"/>
    <path class="cls-2" d="M1372.79,463.01h5.51v47.71h-5.51v-6.62c-2.95,3.31-6.99,7.92-15.38,7.92-12.71,0-16.94-7.64-16.94-17.59v-31.41h5.51v31.32c0,8.19,3.59,12.71,12.27,12.71,9.11,0,14.54-7.56,14.54-18.04v-25.99Z"/>
    <path class="cls-2" d="M1397.84,488.16c-.09,10.31,5.44,18.88,16.03,18.88,7.18,0,12.8-3.96,14.46-10.96h6.18c-2.76,9.03-8.47,15.94-20.64,15.94-15.28,0-21.93-10.87-21.93-24.96s8.29-25.33,21.93-25.33,21.09,9.31,21,26.44h-37.03ZM1428.98,483.55c0-9.3-5.17-16.87-15.12-16.87s-14.91,7.85-16.03,16.87h31.14Z"/>
    <path class="cls-2" d="M1453.93,510.72h-5.53v-47.71h5.53v6.63c4.42-4.7,8.75-7.92,15.37-7.92,5.81,0,11.16,1.85,14.56,6.81,2.3,3.41,2.4,6.99,2.4,10.97v31.21h-5.53v-31.13c0-8.55-3.51-12.9-12.34-12.9-6.83,0-11.51,4.43-13.27,9.31-1.1,3.05-1.19,5.71-1.19,9.03v25.69Z"/>
    <path class="cls-2" d="M1499.23,486.86c0-13.9,7.39-25.14,22.11-25.14s22.12,11.13,22.12,25.14c0,15.11-8.75,25.15-22.12,25.15-12.15-.18-22.11-8.48-22.11-25.15ZM1521.34,466.69c-11.6,0-16.21,9.86-16.21,20.17,0,11.89,5.63,20.18,16.21,20.18,11.61,0,16.21-9.94,16.21-20.18-.09-11.22-4.52-20.17-16.21-20.17Z"/>
    <path class="cls-2" d="M1559.57,495.79c1.75,8.21,5.98,11.25,14.27,11.25s11.79-4.23,11.79-8.84c0-13.82-30.58-4.06-30.58-22.84,0-7.92,6.17-13.63,16.76-13.63s17.05,4.24,18.42,15.01h-5.62c-.99-7.38-5.97-10.05-12.9-10.05s-10.77,3.33-10.77,8.2c0,13,30.59,4.89,30.59,23.22,0,9.11-8.2,13.9-19.44,13.9s-17.68-7.19-18.14-16.22h5.62Z"/>
    <path class="cls-2" d="M1626.88,510.72l26.07-66.31h7.1l25.42,66.31h-6.44l-7.64-20.81h-30.21l-7.85,20.81h-6.44ZM1643.28,484.56h25.98l-12.99-34.82-12.99,34.82Z"/>
    <path class="cls-2" d="M1696.89,452.6v-8.2h6.07v8.2h-6.07ZM1697.17,510.72v-47.71h5.51v47.71h-5.51Z"/>
    <path class="cls-2" d="M1725.34,510.72h-5.51v-47.71h5.51v8.94h.2c3.05-7.65,7.56-10.22,15.57-10.22v5.98c-12.43-.27-15.76,8.94-15.76,19.62v23.39Z"/>
    <path class="cls-2" d="M1754.74,488.16c-.09,10.31,5.43,18.88,16.03,18.88,7.18,0,12.79-3.96,14.44-10.96h6.18c-2.75,9.03-8.48,15.94-20.62,15.94-15.3,0-21.92-10.87-21.92-24.96s8.27-25.33,21.92-25.33,21.09,9.31,21,26.44h-37.03ZM1785.87,483.55c0-9.3-5.15-16.87-15.1-16.87s-14.93,7.85-16.03,16.87h31.13Z"/>
    <path class="cls-2" d="M1808.52,495.79c1.76,8.21,5.99,11.25,14.28,11.25s11.79-4.23,11.79-8.84c0-13.82-30.6-4.06-30.6-22.84,0-7.92,6.18-13.63,16.78-13.63s17.04,4.24,18.43,15.01h-5.63c-1.01-7.38-5.98-10.05-12.89-10.05s-10.78,3.33-10.78,8.2c0,13,30.56,4.89,30.56,23.22,0,9.11-8.2,13.9-19.42,13.9s-17.69-7.19-18.16-16.22h5.63Z"/>
  </g>
</svg>