<?xml version="1.0" encoding="UTF-8"?>
<svg id="Capa_1" data-name="Capa 1" xmlns="http://www.w3.org/2000/svg" version="1.1" viewBox="0 0 160 160">
  <defs>
    <style>
      .cls-1 {
        fill: #47a5bb;
      }

      .cls-1, .cls-2 {
        stroke-width: 0px;
      }

      .cls-2 {
        fill: #fff;
      }
    </style>
  </defs>
  <path id="Trazado_123" data-name="Trazado 123" class="cls-1" d="M112.03,11.62C74.17-5.82,29.33,10.73,11.88,48.59c-13.55,29.4-6.84,64.16,16.66,86.41l-7.79,16.91,20.14-7.43c2.56,1.59,5.2,3.02,7.93,4.3,38.1,16.96,82.74-.18,99.7-38.29,16.64-37.4.46-81.25-36.48-98.87"/>
  <path id="Trazado_124" data-name="Trazado 124" class="cls-2" d="M95.31,63.86c-1.61,0-2.54,1.18-2.54,3.23v3.44c-2.56-4.42-7.28-7.14-12.39-7.12-9.13,0-15.76,7.2-15.76,17.12s6.67,16.89,15.53,16.89c5.87.19,11.2-3.41,13.23-8.92.75,5.23,5.3,9.07,10.59,8.92,9.28,0,14.62-7.78,14.62-21.34,0-20.92-14.28-34.45-36.38-34.45s-36.95,16.06-36.95,38.21c-.34,10.19,3.44,20.1,10.49,27.47,7.38,7.14,17.34,10.97,27.6,10.62,8.86.09,17.51-2.69,24.66-7.92l.05-.06c.22-.32-.04-.89-.17-1.12-.29-.67-.92-1.13-1.64-1.22-.8.04-1.58.34-2.2.84-6.15,4.03-13.35,6.15-20.7,6.09-20.38,0-34.6-14.28-34.6-34.72-.22-9.21,3.11-18.16,9.31-24.98,6.35-6.48,15.09-10.05,24.15-9.86,19.99,0,32.9,12.19,32.9,31.08,0,11.42-3.81,17.97-10.45,17.97-5.12,0-7.83-3.93-7.83-11.36v-17.99c0-.4-.58-.83-1.51-.83M92.77,81.67c.1,6.55-5.13,11.94-11.68,12.05-.08,0-.17,0-.25,0-6.81-.2-12.16-5.88-11.96-12.69,0-.17.01-.33.02-.5,0-7.78,5.07-13.42,12.04-13.42,5.5-.03,10.34,3.61,11.83,8.91v5.65Z"/>
</svg>