<svg height="468.98008" viewBox="92.3588 7.02968 409.5912 468.98008" width="409.5912" xmlns="http://www.w3.org/2000/svg" xmlns:xlink="http://www.w3.org/1999/xlink"><clipPath id="a"><path d="m58.92 26.72h484.51v448.69h-484.51z"/></clipPath><g clip-path="url(#a)"><path d="m342.49 72.95c-4.13-1.05-6.04-6.31-12.44-11.85-6.39-5.54-14.6-5.02-18.63-3.1-5.9 2.81-5.81 7.79-7.77 10.52s-5.93.74-10.35.12c-4.43-.63-16.06 2.97-17.93 13.98s1.24 18.63 6.5 25.81c5.26 7.19 6.73 10.36 4.09 13.38s-16.95 15.4-10.99 25.41c5.97 10.01 19.73 11.57 19.73 11.57l73.31 41.92s8.6 6.99 16.49 3.52 4.91-12.92 10.52-17.44c3.04-2.45 9.05 1.5 17.46 4.95 14.97 6.12 29.58-4.55 27.24-21.73s-16.03-15.83-18.78-23.17c-1.31-3.49 6.27-12.46 5.05-22.4-1.23-9.94-7.93-18.23-18.1-19.11-8.71-.76-15.49-.03-18.93-4.81s5.52-11.77 2.25-22.93c-3.27-11.15-16.31-19.81-27.58-15.94s-14.83 12.91-21.14 11.31" fill="#292f44"/><path d="m364.23 151.64s4.7-13.99 20.27-11.06c15.56 2.93 8.73 26.03-2.3 29.74s-13.9 3.58-13.9 3.58 6.38 29.72 11.85 48.93c5.47 19.22 17.96 52.18 17.96 52.18s-8.08 7.68-22.64 12.35c-14.01 4.49-42.41 10.25-42.41 10.25s-3.29-2.65-5.67-13.02c0 0-.85-11.94-6.69-35.77s-14.79-55.27-14.79-55.27-18.31-5.93-20.03-31.88 7.04-44.26 12.37-54.7c8.19-16.02 21.05-16.28 21.05-16.28s7.72 10.55 28.01 4.87c0 0 8.91 6.43 8.97 14.91.05 8.48-3.91 9.8-.75 22.59 3.17 12.79 4.53 20.9 4.53 20.9l4.16-2.32z" fill="#fff"/><path d="m336.02 133.6c1.39.26 2.3-.64 2.68-2.68s-.13-3.21-1.52-3.47-2.3.64-2.68 2.68c-.39 2.04.13 3.21 1.52 3.47" fill="#313436"/><path d="m300.01 126.19c1.39.26 2.3-.64 2.68-2.68.39-2.04-.13-3.21-1.52-3.47s-2.3.64-2.68 2.68c-.39 2.04.13 3.21 1.52 3.47" fill="#313436"/><path d="m347.21 121.36c-5.61-6.43-14.76-6.09-18.06-5.06" fill="none" stroke="#221f1f" stroke-linecap="round" stroke-linejoin="round" stroke-width="1.07"/><path d="m311.07 112.48c-4.5-3.53-11.09-4.78-14.97-2.82" fill="none" stroke="#221f1f" stroke-linecap="round" stroke-linejoin="round" stroke-width="1.07"/><path d="m317.36 119.66s-8.43 7.99-12.21 12.16c-2.87 3.18-6.33 7.28-4.35 9.93s11 4.14 11 4.14" fill="none" stroke="#221f1f" stroke-linecap="round" stroke-linejoin="round" stroke-width="1.07"/><path d="m305.92 193.55c9.36 4.04 28.1 2.2 37.29-2.69" fill="none" stroke="#221f1f" stroke-linecap="round" stroke-linejoin="round" stroke-width="1.07"/><path d="m180.82 245.27c-8.92 8.88-5.17 24.56 10.74 44.58 15.9 20.01 34.74 35.56 51.01 37.66 0 0 19.41 25.56 33.1 42.59 13.69 17.02 36.12 41.5 36.12 41.5l10.72-109.06s-25.99-32.28-31.08-38.01c-5.09-5.74-4.5-25.91-16.12-35.35-11.63-9.44-31.17.14-37.6 6.72-6.43 6.57-56.89 9.39-56.89 9.39" fill="#fff"/><path d="m252.42 291.75c11.03-1.7 21.1 4.61 24.31 9.99" fill="none" stroke="#000" stroke-linecap="round" stroke-linejoin="round" stroke-width="1.03"/><path d="m264.34 281.06-22.68 18.13c-5.14 4.11-12.64 3.28-16.76-1.87l-50.26-62.87c-4.11-5.14-3.27-12.64 1.87-16.76l22.68-18.13c5.14-4.11 12.64-3.28 16.76 1.87l50.26 62.87c4.11 5.14 3.28 12.64-1.87 16.76" fill="#fff"/><path d="m264.34 281.06-22.68 18.13c-5.14 4.11-12.64 3.28-16.76-1.87l-50.26-62.87c-4.11-5.14-3.27-12.64 1.87-16.76l22.68-18.13c5.14-4.11 12.64-3.28 16.76 1.87l50.26 62.87c4.11 5.14 3.28 12.64-1.87 16.76" fill="#221f1f"/><path d="m264.34 281.06-22.68 18.13c-5.14 4.11-12.64 3.28-16.76-1.87l-50.26-62.87c-4.11-5.14-3.27-12.64 1.87-16.76l22.68-18.13c5.14-4.11 12.64-3.28 16.76 1.87l50.26 62.87c4.11 5.14 3.28 12.64-1.87 16.76z" fill="none" stroke="#221f1f" stroke-miterlimit="10" stroke-width="5.86"/><path d="m244.01 230.91c-3.87 2.25-12.41 5.74-10.36 13.8s8.24 11.08 14.25 11.2c6 .11 13.75-4.38 13.75-4.38z" fill="#fff"/><path d="m234.05 243.86c6.21 3.44 14.22 1.27 17.75-3.12s-1.43-12.26-1.43-12.26" fill="none" stroke="#000" stroke-linecap="round" stroke-linejoin="round" stroke-width="1.03"/><path d="m260.23 252.33c4.2-2.93 7.05-9.21 7.49-11.92" fill="none" stroke="#000" stroke-linecap="round" stroke-linejoin="round" stroke-width="1.03"/><path d="m332.22 250.6s20.72-9.73 33.03-13.39c12.3-3.67 27.15-4.47 27.15-4.47l9.35 41.48s20.62 35.2 26.73 84.05c12.7 101.58 14.7 157.63 13.83 199.38 0 0-60.87-1.94-102.83-28.1-31.93 12.24-84.05-29.56-114.01-58.14l41.13-70.81 43.81 38.17-2.82-40.99s-1.4-28.07-.2-48.94c1.2-20.86 7.61-37.74 7.61-37.74s6.96-17.45 15.62-22.84l1.59-37.66z" fill="#ee4423"/><path d="m310.76 439.21c11.52 8.34 25.14 19.91 25.14 19.91" fill="none" stroke="#000" stroke-linecap="round" stroke-linejoin="round" stroke-width="1.03"/><path d="m382.72 366.78c-.03 34.64 1.38 100.76-10.09 130.78-8.38 21.94-20.75 27.52-33.15 31.98" fill="none" stroke="#000" stroke-linecap="round" stroke-linejoin="round" stroke-width="1.03"/><path d="m236.71 480.04c28.61-26.19 41.04-57.91 42.17-67.39" fill="none" stroke="#000" stroke-linecap="round" stroke-linejoin="round" stroke-width="1.03"/><path d="m330.79 285.55c16.33-9.85 51.37-21.32 68.05-15.97" fill="none" stroke="#000" stroke-linecap="round" stroke-linejoin="round" stroke-width="1.03"/><path d="m266.6 400.61s-33.95-26.01-60.03-42.74-46.57-21.09-61.95-23.88-32.53 1.11-35.07 7.7c-2.55 6.59 3.67 12.3 14.16 13.07s29.63 6.37 33.33 10.34c0 0-13.7 5.31-22.78 16.9s-2.78 20.68-.57 23.67c0 0-8.83 12.26 3.33 21.89 0 0-4.93 10.48 3.59 18.39s20.96.41 21.32-8.05l8.74-2.01s39.45 20.25 54.79 35.54c0 0 13.39-10.11 26.27-32.16 12.89-22.04 14.86-38.65 14.86-38.65" fill="#fff"/><g fill="none" stroke-linecap="round" stroke-linejoin="round"><path d="m133.69 405.65c5.81-10.41 22.58-22.98 34.5-26.13" stroke="#000" stroke-width="1.03"/><path d="m137.02 427.54c3.82-11.21 13.1-22.5 29.02-27.94" stroke="#000" stroke-width="1.03"/><path d="m161.94 437.88c-6.18 1.75-13.35 2.34-13.35 2.34" stroke="#000" stroke-width="1.03"/><path d="m110.73 342.86c10.87 2.62 19.83-.89 21.66-9.21" stroke="#000" stroke-width="1.03"/><path d="m157.04 365.09c9.51-5.12 16.43-5.63 16.43-5.63" stroke="#000" stroke-width="1.03"/></g><g fill="#fff"><path d="m427.14 504.93c-.43-.78-1.13-.95-1.13-1.35 0-.41-.82-.32-.58-.68.26-.4-.81-.41-.8-.8 0-.35-2.94-3.13-3.54-3.97-.54-.75-.65-.83-.65-.47 0 .32-.5-.25-.71-.8-.2-.55-1.74-.7-2.08-1.15-.72-.94-2.58 1.1-2.16 1.43 1.04.84-.94.43-1.26 2.44-.04.24-.19.51-.33.58-.4.2.14.57-.24.77-.41.21.38 0-.46 1.08-.46.59-.48.7-.13.57.37-.13.37-.11.01.16-.5.37-3.2 3.92-2.31 4.1.59.12-.7.8-.45 1.56.18.54.96.89 1.1.5.06-.17.16-.23.23-.16.67.63 2.38.03 2.6.33.42.58 5.64.64 6.12-.1.03-.05 3.2.39 3.21-.81 0-.8.71-.56.39-.4-.79.4.75 1.01 1.56.59.54-.27.41.42 1-.07.75-.62.62.68 1.47.02.66-.52.49-.81.86-.37.21.25.23.15-.2-1.17.22.22.98 1.12.72.48-.33-.81-1.44-.85-2.24-2.3m-16.1.79c.29-.46.26.04.23.09 0 1.21-.62.53-.23-.09m5.57-8.3c.32.01-.09.66-.24.37-.22-.44.27-.43.24-.37m-1.31 2.37c.54.11-.07.37-.31.21-.48-.31.35-.26.31-.21m7.55 6.53c-.21.16-.42.21-.44.1-.05-.24-1.22-.03-1.24.22-.03.33-1.56-.41-1.95.86-.12.4.03-.6-1.03-.49-1.05.11-.73.57-1.55.29-.89-.3-3.85.26-3.57-.18.36-.56-.55-.81.36-.91.37-.04.66-.29.89-.76.19-.38.41-.66.48-.61.19.12 1.48-3.21 1.9-3.97.39-.7-.24-.64.24-.87.31-.15.66-.82.62-.77.42-.84.52-.32 1.39-.09.38.1.38.13 0 .15-1.02.07 1.06.64 1.05 1.53 0 .57 1.02.88 1.5 1.57 1.07 1.53 1.14 1.61 1.44 1.46.19-.09.27.02.25.32-.04.65.59.72.83 1.26.27.6-.34.24-1.17.87m3.65-.53c-.28-.56.23-.36.2-.31.28.18-.03.66-.2.31"/><path d="m403.57 532.18c-.69 0 .69-.37-1.36-1.58-1.87-1.1-1.51-.33-1.9-.84-.15-.2-.32-.17-.48.07-.24.36-.25.35-.16-.12.14-.76-1.42-1.51-1.54-1.31-.07.12-.16.03-.22-.21-.11-.51-1.08-1.15-1.08-.72 0 .45-.15-.21-.75-.59-.17.03-8.84-3.36-9.17-2.86-.49.78-1.78-2.45-1.67 5.89.03 2.25.79 1.83.18 2.04-.57.2-.09 8.6.59 9.03.29.19.27.93.07.51-.18-.36-.89.23.35.34.42.03.46.09.23.26-.57.42.79.68 1.43.26 1.49-.95 2.05-1.09 1.68-1.33-.36-.23 1.55-.39 1.66-.87.13-.55.33.21.82-.28.56-.57 1.88-.5 1.56-.89-.27-.33.01-.72.19-.35.17.34 1.19-.03 1.29-.46.04-.18.16-.22.29-.1.31.3.34-.44.67-.23.47.3-.45-.28 1.91-.9 2.3-.61 1.25-1.04 1.96-.9.55.11.49-.49 1.8-1 1.5-.59.76-.99 1.18-.72.54.34 1.38-2.15.48-2.16m-17.82-1.52c0 .38-.49.08-.31-.2.29-.46.36.23.31.2m13.39-1.39c.33.19.26.31.2.28-.26.06-.79-.61-.2-.28m-7.08 10.24c-.42.31-.49-.06-.1-.24.69-.33.16.27.1.24m6.13-4.94c-.02.42.18-.36-1.18.32-1.5.75-1.06.06-2.08.79-1.35.98-2.34.51-2.24 1.32.08.65-.12.01-.45.25-.36.26-1.33.06-1.44.59-.12.59-.84 0-.95.58-.2.98-.47-.8-.85-1.04-.2-.13-.46-8.76-1.31-8.8-.17 0-.19-.05-.06-.09.31-.09.23-.92-.09-.93-.27 0-.59-.67.77.09 5.11 2.87 8.82 2.75 8.47 3.32-.19.3 1.06.18 1.07.57s1.27 1.26 1.43 1c.08-.13.2-.11.27.03.2.41 1.25-.7 1.04.34.34.22-2.39 1.21-2.41 1.66"/><path d="m332.32 332.82c.42.78 8.66-6.39 8.75-6.34.41.24 1.79-1.08 1.57-1.49-1.26-2.33-17.82-11.23-16.1-8.05.18.33-.33.59-.3.21.08-1.4-1.74 3.14-1.2 3.46.2.12.2.18.02.17-1.61-.09-.22 9.06.71 11.08.19.41.56 1.27.43 1.71-.23.75 1.43 2.03 1.91 1.47.14-.16.23-.16.23 0-.03.66 1.19-.29 3.29-1.43.74-.59.45-1.24.69-.79m-3.54-15.64c-.03.63-.38.2-.33.18-.16-.29.34-.56.33-.18m-.37 12.67c-.56-.71.07-.23-.01-.88-.03-.26-.12-.3-.24-.11-.11.17-.12-.02-.03-.43.1-.45.07-.6-.07-.38-.16.24-.19.16-.09-.29.2-.88-.45-1.52-.12-1.7.39-.21-.84-1.11-.36-1.09.41.02-.02-.94.31-1.12.36-.19-.61-.79-.18-1.02.31-.17.49-1.58.26-2.01-.26-.49.44-.6.96-.15.71.61 1.42.05 1.73.61.31.58.34.08 1.03.61.73.56 1.69.2 1.79.44.22.5.34.6.47.37.08-.15.2-.15.28 0 .2.37 2.94 1.48 3.01 1.23.03-.12.12-.09.2.06.43.79 1.88.81 1.95 1.41.1.77-.58.34-.43.26-.12-.42-.62-.21-.35.06.28.28-.23-.09-.47.5-.16.4-.18.38-.18-.18 0-1.01-1.11 0-.92.1.11.07.07.2-.11.3-.48.26-.38-.27-.74-.08-.13.07-.14.17-.03.24.24.14-.68.6-1.14.57-.21-.01-.27.14-.16.38.1.22.07.31-.07.19-.34-.28-.77-.05-.36.19.58.35-.53-.22-1.08.36-.49.51-2.39 1.61-3.88 2.63-1.61 1.1-.17-.07-.97-1.08m2.97 1.88c.06-.25.75.26.74.55-.03.45-.86-.49-.74-.55"/><path d="m359.54 265.96c.42.78 8.66-6.39 8.75-6.34.41.24 1.79-1.08 1.57-1.49-1.26-2.33-17.82-11.23-16.1-8.05.18.33-.33.59-.3.21.08-1.4-1.74 3.14-1.2 3.46.2.12.2.18.02.17-1.61-.09-.22 9.06.71 11.08.19.41.56 1.27.43 1.71-.23.75 1.43 2.03 1.91 1.47.14-.16.23-.16.23 0-.03.66 1.19-.29 3.29-1.43.74-.59.45-1.24.69-.79m-3.55-15.64c-.03.63-.38.2-.33.18-.16-.29.34-.56.33-.18m-.36 12.67c-.56-.71.07-.23-.01-.88-.03-.26-.12-.3-.24-.11-.11.17-.12-.02-.03-.43.1-.45.07-.6-.07-.38-.16.24-.19.16-.09-.29.2-.88-.45-1.52-.12-1.7.39-.21-.84-1.11-.36-1.09.41.02-.02-.94.31-1.12.36-.19-.61-.79-.18-1.02.31-.17.49-1.58.26-2.01-.26-.49.44-.6.96-.15.7.61 1.42.05 1.73.61.31.58.34.08 1.03.61.73.56 1.69.2 1.79.44.22.5.34.6.47.37.08-.15.2-.15.28 0 .2.37 2.94 1.48 3.01 1.23.03-.12.12-.09.2.06.43.79 1.88.81 1.95 1.41.1.77-.58.34-.43.26-.12-.42-.62-.21-.35.06.28.28-.23-.09-.47.5-.16.4-.18.38-.18-.18 0-1.01-1.11 0-.92.1.11.07.06.2-.11.3-.48.26-.38-.27-.74-.08-.13.07-.14.17-.03.24.24.14-.68.6-1.14.57-.21-.01-.27.14-.16.38.1.22.07.31-.07.19-.34-.28-.77-.05-.36.19.58.35-.53-.22-1.08.36-.49.51-2.39 1.61-3.88 2.63-1.61 1.1-.17-.07-.97-1.08m2.96 1.88c.06-.25.75.26.74.55-.03.45-.86-.49-.74-.55"/><path d="m419.69 470.25c.42.78 8.66-6.39 8.75-6.34.41.24 1.79-1.08 1.57-1.49-1.26-2.33-17.82-11.23-16.1-8.05.18.33-.33.59-.3.21.08-1.4-1.74 3.14-1.2 3.46.2.12.2.18.02.17-1.61-.09-.22 9.06.71 11.08.19.41.56 1.27.43 1.71-.23.75 1.43 2.03 1.91 1.47.14-.16.24-.16.23 0-.03.66 1.19-.29 3.29-1.43.74-.59.45-1.24.69-.79m-3.55-15.64c-.03.63-.38.2-.33.18-.16-.29.34-.56.33-.18m-.36 12.67c-.56-.71.07-.23-.01-.88-.03-.26-.12-.3-.24-.11-.11.17-.12-.02-.03-.43.1-.45.07-.6-.07-.38-.16.24-.19.16-.09-.29.2-.88-.45-1.52-.12-1.7.39-.21-.84-1.11-.36-1.09.41.02-.02-.94.31-1.12.36-.19-.61-.79-.18-1.02.31-.17.49-1.58.26-2.01-.26-.49.44-.6.96-.15.71.61 1.42.05 1.73.61.31.58.34.08 1.03.61.73.56 1.69.2 1.79.44.22.5.34.6.47.37.08-.15.2-.15.28 0 .2.37 2.94 1.48 3.01 1.23.03-.12.12-.09.2.06.43.79 1.88.81 1.95 1.41.1.77-.58.34-.43.26-.12-.42-.62-.21-.35.06.28.28-.23-.09-.47.5-.16.4-.18.38-.18-.18 0-1.01-1.11 0-.92.1.11.07.07.2-.11.3-.48.26-.38-.27-.74-.08-.13.07-.14.17-.03.24.24.14-.68.6-1.14.57-.21-.01-.27.14-.16.38.1.22.08.31-.07.19-.34-.28-.77-.05-.36.19.58.35-.53-.22-1.08.36-.49.51-2.39 1.61-3.88 2.63-1.61 1.1-.17-.07-.97-1.08m2.97 1.88c.06-.25.75.26.74.55-.03.45-.86-.49-.74-.55"/><path d="m390.72 292c1.34.49 6.83 6.09 7.97 5.91.38-.06.4-.04.08.12s-.22.31.51.75c2.54 1.53 1.12 1.62 2.22 2.07 1.02.41.93 1.05 1 .56.03-.17.29-.27.61-.22.56.08 1.39-.63 1.21-1.04-.2-.45.72-.06.27-.82-.15-.25-.2-.44-.11-.43.33.05-.46-.92.12-1.05.39-.09.9-1.04.58-1.08-.33-.05.44-1.13-.08-.91-.37.16-.41-.34.21-.4.43-.05.43-.05.02-.13-.56-.11-.4-1.15-.11-.54.34.71 1.16-5.17.71-4.97-.3.13.4-2.82.17-2.73-.17.07-1.06-.54-.41-.44.56.08.43-2.15.33-2.07-.22.16-.71-.73-.52-.95.48-.57-2.69.1-2.95.07-.18-.03-.17.07.03.24.23.21.1.25-.48.14-.52-.09-2.92.55-2.75.94.05.11-.09.11-.3 0-.27-.15-.35-.12-.24.13.1.24.07.28-.12.12-.28-.24-2.08.45-2.13.81-.03.18-2.3.19-2.18.85.06.32-.59-.12-3.3 1.7-2.07 1.39-.98 2.32-1 2.38-.17.52 0 .77.65 1.01m15.06.01c-.1.08-.48.02-.47-.04-.44-.24.68-.11.47.04m-10.81 3c-.3-.04-.32-.21.05-.36.58-.24-.1.65-.05.36m4.58 2.66c-.27-.56-.17-.99.07-.49.45.94-.11.72-.07.49m2.89-12.88c.38.32.03.79.06.62-.12-.02-.36-.88-.06-.62m-7.08 4.18c.49.4-.06.42-.05.36-.32-.05-.24-.61.05-.36m-.97 2.26c.14-.61 2.6-2.32 2.32-1.97-.6.74 7.05-3.62 7.16-3.67-.29.74-.49 1.2-.21 1.24.41.06-.98 3.02-.33 2.75.16-.07.08.13-.18.43-.62.73-1.01 2.45-.51 2.24.28-.12.28-.08-.05.22-.32.3-.33.38-.06.42.22.03.24.09.06.18-.43.22-.73 1.79-.31 1.62.24-.1.23-.04-.04.22-.82.78.65.82-.53 1.66-.36.26-.53.32-.39.14.19-.24.13-.29-.23-.21-.62.14 0-.03-.36-.48-.81-.99-2.61-1.74-2.84-2.02-.85-1.02-3.01-2.67-3.29-2.51-.19.11-.26.02-.2-.27"/><path d="m405.64 367.16c-.11 0-.1.07 0 0"/><path d="m402.75 368.02c.08.44.05.52-.13.32s-.2-.13-.13.31c.13.75-.43 1.54.23 3.46.14.41.29.56.35.37.08-.23.13-.23.19.01.14.55.91.05 2.63.31 1.31.2 1.29-.53 1.67-.22.26.22 1.31-.14.87-.67-.52-.63 1.17.86 3.68-.47 2.92-1.55 4.04-.61 3.49-1.78-.16-.34-.12-.33.25.04.29.29.46.36.52.2.12-.35.63.11 1.09-.36 1.33-1.36.33-3.53.51-2.5.14.81-3.11-5.23-5.3-5.68-.22-.05-.52-1.17-.99-1.32-.32-.11-3.91-3.4-4.35-3.23-.24.1-.38.04-.43-.17-.22-.94-1.48-.07-.44-.06.36 0 .37.03.05.13-1.34.42-.49-1.99-1.95 2.44.23-.05-1.98 7.72-1.79 8.85m2.77 3.69c.24-.3.41-.25.39-.2.12.22-.84.78-.39.2m8.96-1.64c.29.1.28.26-.12.35-.61.14.21-.62.12-.35m-8.69-2.86c-.66-.22.52 1.13 1.92-6.63.29.23 1.34 1 1.57 1.29.92 1.22 1.14 0 1.86 1.28.78 1.38 1.42.96 1.3 1.32-.06.19.95 1.2 1.23 1.23.35.03-.6.42.9.88-.51.33-1.33.9-2.11 1.05-.91.18-3.11 1.82-3.24 1.56-.15-.3-.04.41-.88.67-.75.24-.4.84-.58.53-.14-.26-1.25.14-1.18.42.03.11-.19.14-.48.06-.7-.18-.76.33-1.12.21-.52-.17 1.41-3.68.81-3.88m-1.67-.29c-.21-.8.13-.41.11-.36.24.28.04.95-.11.36"/><path d="m379.11 333.67c-.15 0-.2-.09-.13-.24s-.09-.24-.39-.22c-.76.05-.12-.47-.45-.49-2.12-.16-8.47.73-10.21 2.06-.78.6-.25-.53-2.05.53-.54.32-.88-.21-.58.24.16.24.1.3-.2.21-.6-.17-.26.43-.61.25-.68-.35-.66 2.45-.36 2.23.12-.09.17 0 .11.2-.16.52.48.54.32.88-.15.32 1.15.91.72.94-.5.03.77 1.04.81 1.56.03.46.86.45.69.75-.15.29.56 1.03.9.93.18-.05.43.24.58.68.43 1.29 1.66 1.46 1.39 1.79-.2.24.44 0 .39.44-.06.44.55-.03.59.59.03.52 1.76 2.09 2 1.82.09-.1.31 0 .51.23.91 1.07 2.05-1.89 1.69-1.98-.29-.07-.12-.81.33-.65 1.5.52 3.93-11.03 4.09-11.04.3-.02.21-1.74-.14-1.72m-12.4 7.84c-.43-.13-.52-.31-.17-.34.29-.02.7.5.17.34m6.99 7.2c0 .13-.46.53-.48.18-.03-.46.64-.19.48-.18m2.77-11.97c-.25-.12-.8 1.61-.69 2.17.06.3-.68.83-.68 1.28 0 1.31-.67 2.17-.08 1.78.44-.29-1.07 1.43-.87 1.42.52-.03-2.22 2.57-1.58 1.36.19-.36-.73-.34-.53-.73.19-.36-.37-.09-.4-.54-.03-.39-.92-1.17-1.1-.96-.13.15-1.3-.97-.34-.35.46.3.48.29.16-.06-.47-.52-1.31-.56-1.33-.85-.03-.37-.89-1.16-1.1-1.01-.11.08-.17.06-.14-.07.09-.38-.92-1.51-1.18-1.32-.16.11-.21.02-.14-.23.17-.59-.5-.29-.26-.56.3-.33 1.88.07 1.84-.48-.02-.27.02-.27.22-.01.16.21.29.23.39.05.23-.43 1.09.16.73-.32-.35-.48.67.02 1.23-.02.84-.06 5.34-1.17 5.95-.59.06 0 .14.16-.09.05"/><path d="m406.07 421.8c.3-.2 2.33 1.22 3.21-.28.2-.33.3-.72.24-.9-.06-.16 0-.29.12-.26.78.18-1.1-2.66-1.12-2.71-.92-.94-.08-1.75-3.5 4.23.41.08.8.1 1.06-.07"/><path d="m403.22 409.36c-.1.12-.15.09-.11-.08.1-.48-.43-.93-.76-.65-.22.18-.3.17-.25-.06.04-.19-.1-.33-.34-.34-.66-.03.04-.64-1.01-.28-.97.33-.42.76-.82.68-.45-.1 0 .77-.83.79-.39 0-.45.07-.24.24.18.15.16.2-.05.15-.49-.11-1.82 1.89-2.61 2.24-2.13.94-3.52 4.18-3.87 4.1-.42-.09-.78 1.32-.53 2.07.22.65 1.35 1.46 1.82 1.3.06-.02 3.84 1.58 4.03 1.35.11-.13.22-.13.26.01.08.23 1.22.32 1.24.09.02-.27 1.86 1.01 2.93.45.59-.31.66.43 1.31.2 2.47-.85-.07 3.24 4.5-4.74-2.52-3.25-3.7-8.7-4.65-7.53m-.14 4.2c-.06.12-.42.23-.43.18-.5-.02.55-.42.43-.18m-6.5 5.86c-.25.3-.43-.24-.12-.35.52-.18.14.41.12.35m1.96 1.14c-.23.28-.64-.08-.19-.23.64-.22.2.29.19.23m4.74-1.23c-.3.1-.43.04-.38-.2.04-.2-.06-.14-.25.15-.25.4-.3.42-.23.11.06-.29 0-.33-.24-.13-.42.35.27-.33-1.99-.58-.81-.09-4.49-.83-4.48-1.63 0-.1 2.32-2.32 2.3-2.96-.03-1.05 1.36-.29.8-1.47-.27-.56-.25-.58.19-.28.45.31.54.05.19-.56-.24-.42.63.55.95-.52.1-.35.22-.57.25-.48.03.1.22-.12.41-.48.82-1.54.87.92.81.75 1.27 8.37 4.33 7.36 1.68 8.27m2.03 1.26c-.37-.08-.54-.55-.16-.47.66.14.23.66.16.47"/><path d="m341.43 388.59c.22-.61-.45.59 2.85-.53 2.01-.68 5.92-2.57 5.79-2.99-.17-.55 1.65-.25 1.13-1.1-.22-.37-.19-.41.28-.28 1.33.36.27-2.06-.55-2.64-.36-.25-.64-.58-.6-.72.04-.15-.05-.22-.22-.16-.17.05-.24 0-.19-.1.15-.28-1.28-1.68-1.76-1.71-.54-.04-.06-.68-1.13-1.09-.44-.17-.65-.34-.48-.39.21-.07.15-.19-.22-.41-.95-.58-.21-.68-1.54-1.13-.49-.17-.88-.42-.9-.59-.12-.86-2.23-2.14-2.8-1.7-.21.16-.3.14-.25-.05.16-.59-.55-.44-.85.18-.47.95-.8.63-.65 1.12.16.52-.42.3-.23.94.18.6-.62.84-.28 1.28.36.46-.29-.08-.26.81.05 1.15-.77 1.32-.12 1.51.28.08.26.14-.07.24-.34.1-.37.25-.15.68.17.33.17.52 0 .48-.42-.11.42.9.04.8-.22-.06-.22.08-.03 1 .09.45-.39.91-.24 1.42.15.5-.5.4-.18.68.42.38-.27 1.06.38 1.4.54.29-.14.06-.16.46 0 .16-.06.38-.12.55-.23.61.37 2.05.93 2.24.81.27.22.86.69.22.22-.29.32-.35.27-.13-.14.57 1.48.05 1.61-.29m8.93-7.1c.12-.23.98-.2.34.03-.35.13-.4 0-.34-.03m-10.45-7.48c-.29-.26.26-.42.35-.11.16.52-.41.13-.35.11m.73-.99c-.15.61-.41.13-.35.11-.1-.32.45-.48.35-.11m6.2 12.37c-.05-.16 1.05.08 1.1.23.07.21-1.26-.18-1.1-.23m1.95-1.19c-.08-.27.46-.76.6-.31.19.65-.84.38-.6.31m-3.71-8.42c.47.42-.63.19-.35.11-.09-.29.05-.38.35-.11m-4.29 9.33c-.33-.18-.34-.22-.04-.25.25-.02.33-.36.24-1.03-.09-.73.12-2.91.11-2.93-.13-.42.42-.33.31-.68-.16-.54.4-3.76.7-2.77.12.38.71-.26.72-.01 0 .39.92 1.07 1.13.84.13-.15.18-.13.13.07-.11.41.77.65 1.74 1.54.97.9 1.52.39 1.73 1.07.2.67.55.13.72.69.07.24.23.28.44.13.19-.15.29-.13.25.03-.04.17.03.25.16.21.24-.07 1.15.82-1.61 1.53-1.24.32-.88.85-1.32.74-.8-.21-4.53 1.31-5.42.83"/><path d="m358.24 427.94c-.46.36-4.7-.44-4.5.02.08.18-.01.17-.26-.01-.47-.36-1.83-.36-1.89 0-.03.16-.11.13-.2-.08-.13-.28-.51-.33-2.14-.26-4.89.2-3.85.29-4.36 1.12-.18.3-.3.33-.39.12-.08-.18-.3-.02-.56.42-.58 1 .33 1.82.23 3.13-.08 1.07.46.79.39 1.32-.24 1.67 1.41 2.47 1.27 2.84-.06.16.05.27.25.26.28-.02.28.04.04.26-.54.5 1.12 2.29 1 3.1-.1.68.46.29.36.98-.09.64.74.74.49 1.2-.25.45.34.85.17.45-.17-.39.4-.36.33.12-.06.43.51 1.01.36.29-.18-.81.16.17.79.26.29.04.31 0 .08-.2-.21-.18-.1-.28.41-.33 1.65-.18 1.49-.95 2.65-2.12.58-.59.77-.93.6-1.07s-.06-.3.31-.46c.82-.37 4.37-6.09 3.52-5.81-.44.15.82-.5.55-.54-.11-.02-.06-.15.1-.29.44-.39.46-1.22 1.04-1.99.57-.75 0-.71.43-1.1.34-.31-.67-1.56-1.08-1.62m-14.09 1.7c.11-.81.39.05.33.05.11.51-.4.44-.33-.05m1.56-1.39c.49-.58.25.18.19.18-.25.46-.46.15-.19-.18m.04 5.37c-.21.16-.97-.23-.3-.17.38.03.36.18.3.17m.67-.68c-.01.07-.72.34-.66-.09.07-.46.77.11.66.09m4.57 9.33c-.07.48-.49.14-.27-.14.4-.49.33.15.27.14m4.33-9.77c-.05.29-.16.47-.24.4-.34-.26-.28 1.98-.67 1.67-.27-.22-.87 1.21-1.41 1.62-.51.38-.38 1.15-.77 1.32-.16.07-.26.23-.23.38.08.43-1.63 1.7-1.9 1.4-.33-.36-.76.16-.48-.22.31-.42-.31-.46-.05-.93.26-.46-.93-1.5-.89-1.82.04-.34-.68-1.29-1.02-1.34-.19-.03-.27-.1-.18-.17.28-.21-.16-1.15-.48-1.01-.16.07-.2.03-.1-.09.28-.33-.75-1.14-.47-1.46.11-.13.03-.18-.2-.13-.29.07-.35-.02-.21-.33.29-.68-.52-1.07-.45-1.59.06-.42-.86.03-.56-.33.11-.14.31-.19.48-.13.57.2 1.67-.07 1.57-.39-.11-.33.08.58 1.41.7 9.35.85 7.17.6 6.87 2.45"/><path d="m259.48 395.56c.05 0 .04-.03 0 0"/><path d="m360.52 491.99c-.09-.37.55.2.36-.6-.1-.46-.16-.48-.29-.13-.32.8.3-.52-.9-1.2-.44-.25-.74-.53-.68-.63.46-.74-2.81-2.71-2.64-2.75.37-.08-1.91-1.9-2.11-2.41-.26-.7-.58-1.03-.79-.82-.12.11-.18.01-.15-.22.07-.58-.77-.88-1.04-1.5-.41-.94-2.02.21-2.46-.62-.23-.43-1.04-.44-.94 0 .03.13-.09.27-.26.31-2.11.49-3.66 9.7-4 9.78-.5.12.71.4.02 1.01-.61.53-.36.9-.08.62.33-.33.1.42-.22.32-.33-.11-.91 1.46-.8 2.2.05.34-.02.62-.16.62-.35 0 .07.97-.36.98-.41.01-.29.51.04.43.3-.07.5.49 0 .42-.81-.11-.56 1.33.35 2.02.48.37.57.38.39.06-.45-.75.19.21 2.07-.23 1.68-.39.96-.89 1.32-.57.25.22 3.59-.38 3.27-.88-.06.01 3.96-.31 3.14-.97-.36-.28-.33-.29.18-.03 1.02.51 2.24-.82 3.4-1.09.12-.03.12-.22-.01-.44-.14-.24-.13-.3.04-.15.7.63 1.26-.76 1.63-.24.28.4.31-.24.79-.4.94-.3 1.05-.36.88-.47-.11-.06-.01-.33.21-.58.54-.61-.06-.99.28-1.25.46-.36-.36-.14-.46-.57m-9.36-10.16c-.15.47-.49.11-.43.1-.22-.24.53-.41.43-.1m4.2 12.28c.32.47-1.51.2-1.28.15-.29-.12-5.3 1.58-5.45 1.14-.1-.31.2.23-1.26.46-2.71.41 1.65-5.81.73-7.17-.27-.39-.27-.5 0-.47.32.04.57-.84.38-1.32-.04-.11.03-.15.2-.1.32.1 1.4-4.5 1.86-2.24.23 1.18 1.14 1.76 1.27 2.14.34.96 1.07.01.91.53-.27.83 2.34 2.51 2.54 2.29.06-.07.07-.04.03.06-.12.27 1.8 1.72 2.01 1.52.25-.24.16.45.99 1.1 2.42 1.91-3.49 1.07-2.91 1.92m4.55.29c-.25.72-.3-.08-.24-.09.07-.52.38-.31.24.09m.59-1.08c-.19-.12-.36-.37-.26-.39.14-.2.84.76.26.39"/><path d="m306.73 500.06c-.09-.37.55.2.36-.6-.1-.46-.16-.48-.29-.13-.32.8.3-.52-.9-1.2-.44-.25-.74-.53-.68-.63.46-.74-2.81-2.71-2.64-2.75.37-.09-1.91-1.9-2.11-2.41-.26-.7-.58-1.03-.79-.82-.12.11-.18.01-.15-.22.07-.58-.77-.88-1.04-1.5-.41-.94-2.02.21-2.46-.62-.23-.43-1.04-.44-.94 0 .03.13-.09.27-.26.31-2.12.49-3.66 9.7-4 9.78-.5.12.71.4.02 1.01-.61.53-.36.9-.08.62.33-.33.1.42-.22.32-.33-.11-.91 1.46-.8 2.2.05.34-.02.62-.16.62-.35 0 .07.97-.36.98-.41.01-.29.51.04.43.3-.07.5.49 0 .42-.81-.11-.56 1.33.35 2.02.48.37.57.38.39.06-.45-.75.19.21 2.07-.23 1.68-.39.96-.89 1.32-.57.25.22 3.59-.38 3.27-.88-.06.01 3.96-.31 3.14-.97-.36-.28-.33-.29.18-.03 1.02.51 2.24-.82 3.4-1.09.12-.03.12-.22-.01-.44-.14-.24-.13-.3.04-.15.7.63 1.26-.76 1.63-.24.28.4.31-.24.79-.4.94-.3 1.05-.36.88-.47-.11-.06-.01-.33.21-.58.54-.61-.06-.99.28-1.25.46-.36-.36-.14-.46-.57m-9.36-10.16c-.15.47-.49.11-.43.1-.22-.24.53-.41.43-.1m4.2 12.28c.32.47-1.51.2-1.28.15-.29-.12-5.3 1.58-5.45 1.14-.1-.31.2.23-1.26.46-2.71.41 1.65-5.81.73-7.17-.27-.39-.27-.5 0-.47.32.04.57-.84.38-1.32-.04-.11.03-.15.2-.1.32.1 1.4-4.5 1.86-2.24.23 1.18 1.14 1.76 1.27 2.14.34.96 1.07.01.91.53-.27.83 2.34 2.51 2.54 2.29.06-.07.07-.04.03.06-.12.27 1.8 1.72 2.01 1.52.25-.24.16.45.99 1.1 2.41 1.91-3.49 1.07-2.91 1.92m4.55.29c-.25.72-.3-.08-.24-.09.07-.52.38-.31.24.09m.59-1.08c-.19-.12-.36-.37-.26-.39.14-.2.84.76.26.39"/><path d="m307.92 468.16c-.15-.25-.2-.44-.11-.43.33.05-.46-.92.12-1.05.39-.09.9-1.04.58-1.08-.33-.05.44-1.13-.08-.91-.38.16-.41-.34.21-.4.43-.05.43-.05.02-.13-.56-.12-.4-1.15-.11-.54.33.71 1.16-5.17.7-4.97-.3.13.4-2.81.18-2.72-.17.07-1.06-.54-.41-.45.56.08.43-2.15.33-2.07-.22.16-.71-.73-.52-.95.48-.57-2.69.1-2.95.06-.18-.03-.17.07.03.24.23.21.1.24-.48.14-.53-.1-2.93.54-2.75.94.05.11-.09.11-.3 0-.28-.16-.35-.12-.24.13.1.24.07.28-.12.12-.28-.24-2.08.45-2.14.82-.03.18-2.3.19-2.18.85.06.32-.59-.12-3.3 1.7-2.07 1.39-.98 2.32-1 2.38-.17.52 0 .77.65 1.01 1.34.49 6.83 6.09 7.97 5.9.38-.06.4-.03.08.13s-.22.31.51.75c2.54 1.53 1.12 1.63 2.22 2.07 1.02.42.93 1.05 1 .56.03-.17.29-.27.61-.22.56.08 1.39-.63 1.21-1.04-.19-.45.72-.06.27-.82m1.2-7.32c-.1.08-.47.02-.46-.04-.44-.25.68-.11.46.04m-3.34-7.23c.38.32.03.79.06.63-.12-.02-.36-.88-.06-.63m-7.08 4.18c.49.4-.06.43-.05.37-.33-.05-.24-.61.05-.37m-.39 6.04c-.3-.04-.32-.21.05-.37.58-.24-.1.65-.05.37m4.58 2.67c-.27-.56-.17-.99.07-.49.45.94-.1.72-.07.49m4.11-10.85c.41.06-.98 3.02-.33 2.75.16-.07.08.12-.18.43-.62.73-1.02 2.45-.51 2.24.28-.12.28-.08-.04.22s-.33.37-.06.41c.22.03.24.09.06.18-.43.22-.74 1.79-.31 1.62.24-.1.23-.04-.04.22-.82.77.66.82-.53 1.66-.36.26-.53.32-.39.14.19-.24.13-.29-.23-.21-.62.13 0-.03-.36-.48-.81-.99-2.61-1.74-2.84-2.02-.85-1.02-3.01-2.67-3.29-2.51-.19.12-.26.02-.2-.27.14-.61 2.6-2.32 2.32-1.98-.6.74 7.05-3.61 7.16-3.67-.29.74-.49 1.2-.21 1.24"/><path d="m225.17 239.62-15.28 12.08c-1.58 1.25-3.88.98-5.12-.6l-12.08-15.28c-1.25-1.58-.98-3.87.6-5.12l15.28-12.08c1.58-1.25 3.87-.98 5.13.6l12.08 15.28c1.25 1.58.98 3.87-.6 5.12"/></g><g fill="#221f1f"><path d="m195.04 231.82h3.36v3.36h-3.36z" transform="matrix(.78455998 -.62005293 .62005293 .78455998 -102.4 172.28)"/><path d="m200.03 232.4h3.36v3.36h-3.36z" transform="matrix(.78455998 -.62005293 .62005293 .78455998 -101.68 175.49)"/><path d="m205.01 232.98h3.36v3.36h-3.36z" transform="matrix(.78455998 -.62005293 .62005293 .78455998 -100.97 178.71)"/><path d="m210 233.56h3.36v3.36h-3.36z" transform="matrix(.78455998 -.62005293 .62005293 .78455998 -100.26 181.93)"/><path d="m214.99 234.15h3.36v3.36h-3.36z" transform="matrix(.78455998 -.62005293 .62005293 .78455998 -99.55 185.15)"/><path d="m219.97 234.73h3.36v3.36h-3.36z" transform="matrix(.78455998 -.62005293 .62005293 .78455998 -98.83 188.37)"/><path d="m199.44 237.39h3.36v3.36h-3.36z" transform="matrix(.78455998 -.62005293 .62005293 .78455998 -104.9 176.21)"/><path d="m204.43 237.97h3.36v3.36h-3.36z" transform="matrix(.78455998 -.62005293 .62005293 .78455998 -104.19 179.43)"/><path d="m209.42 238.55h3.36v3.36h-3.36z" transform="matrix(.78455998 -.62005293 .62005293 .78455998 -103.48 182.64)"/><path d="m214.4 239.13h3.36v3.36h-3.36z" transform="matrix(.78455998 -.62005293 .62005293 .78455998 -102.76 185.86)"/><path d="m203.85 242.96h3.36v3.36h-3.36z" transform="matrix(.78455998 -.62005293 .62005293 .78455998 -107.41 180.14)"/><path d="m208.83 243.54h3.36v3.36h-3.36z" transform="matrix(.78455998 -.62005293 .62005293 .78455998 -106.69 183.36)"/><path d="m200.58 227.37h3.36v3.36h-3.36z" transform="matrix(.78455998 -.62005293 .62005293 .78455998 -98.45 174.76)"/><path d="m205.57 227.96h3.36v3.36h-3.36z" transform="matrix(.78455998 -.62005293 .62005293 .78455998 -97.74 177.97)"/><path d="m210.55 228.54h3.36v3.36h-3.36z" transform="matrix(.78455998 -.62005293 .62005293 .78455998 -97.02 181.19)"/><path d="m215.54 229.12h3.36v3.36h-3.36z" transform="matrix(.78455998 -.62005293 .62005293 .78455998 -96.31 184.41)"/><path d="m206.12 222.93h3.36v3.36h-3.36z" transform="matrix(.78455998 -.62005293 .62005293 .78455998 -94.5 177.23)"/><path d="m211.11 223.52h3.36v3.36h-3.36z" transform="matrix(.78455998 -.62005293 .62005293 .78455998 -93.79 180.45)"/></g><path d="m247.19 263.21-1.2-1.56-5.86 4.49 1.19 1.55c-1.04-.6-2.38-.64-3.86.49l-2.07 1.59-1.69 1.29-.89.68 2.6 7.22-.02.02-6.4-4.32-2.58 1.98 6.47 8.45 1.72-1.32-4.54-5.93.02-.02 6.58 4.36 1.41-1.08-2.54-7.55.03-.02 4.59 5.99.03-.02 1.69-1.29.14-.11-2.32-3.03 1.93-1.48c1.47-1.13 1.79-2.44 1.47-3.6l3.51 4.59 1.83-1.4-2.67-3.49 3.49-2.67-1.11-1.44-3.49 2.67-1.49-1.95zm-7.18 9.33-1.43 1.09-1.94-2.53 1.42-1.09c.85-.65 1.76-1.04 2.58.03s.21 1.85-.64 2.5" fill="#fff"/></g></svg>