<?xml version="1.0" encoding="UTF-8"?>
<svg id="Capa_1" data-name="Capa 1" xmlns="http://www.w3.org/2000/svg" version="1.1" xmlns:xlink="http://www.w3.org/1999/xlink" viewBox="0 0 160 160">
  <defs>
    <style>
      .cls-1 {
        fill: #47a5bb;
      }

      .cls-1, .cls-2, .cls-3 {
        stroke-width: 0px;
      }

      .cls-2 {
        fill: none;
      }

      .cls-4 {
        clip-path: url(#clippath-1);
      }

      .cls-5 {
        clip-path: url(#clippath);
      }

      .cls-3 {
        fill: #fff;
      }
    </style>
    <clipPath id="clippath">
      <rect class="cls-2" x="4.95" y="4.94" width="150.11" height="150.12"/>
    </clipPath>
    <clipPath id="clippath-1">
      <rect class="cls-2" x="4.95" y="4.94" width="150.11" height="150.12"/>
    </clipPath>
  </defs>
  <g id="Grupo_12" data-name="Grupo 12">
    <g id="Grupo_9" data-name="Grupo 9">
      <g class="cls-5">
        <g id="Grupo_8" data-name="Grupo 8">
          <path id="Trazado_125" data-name="Trazado 125" class="cls-1" d="M111.4,11.86C73.78-5.48,29.22,10.96,11.88,48.59c-13.46,29.21-6.8,63.76,16.56,85.87l-7.74,16.8,20.01-7.38c2.54,1.58,5.17,3,7.88,4.27,37.87,16.85,82.22-.18,99.07-38.05,16.54-37.16.46-80.74-36.25-98.25"/>
        </g>
      </g>
    </g>
    <g id="Grupo_11" data-name="Grupo 11">
      <g class="cls-4">
        <g id="Grupo_10" data-name="Grupo 10">
          <path id="Trazado_126" data-name="Trazado 126" class="cls-3" d="M51.91,71.63c-.38,0-.74-.15-1.01-.42-.27-.27-.41-.63-.41-1.01.4-18.31,10.49-27.6,29.99-27.6s29.48,9.19,29.99,27.32c.02.77-.59,1.42-1.36,1.44-.77.01-1.41-.59-1.44-1.36-.46-16.56-9.35-24.6-27.18-24.6s-26.76,8.07-27.17,24.69v.13c0,.77-.61,1.4-1.38,1.4,0,0,0,0,0,0"/>
          <path id="Trazado_127" data-name="Trazado 127" class="cls-3" d="M91.96,114.74c-.77,0-1.4-.63-1.4-1.4,0-.62.4-1.16.99-1.34,7.51-2.28,13.39-8.14,15.7-15.64.23-.74,1.01-1.15,1.75-.93.74.23,1.15,1.01.93,1.75-2.59,8.38-9.17,14.94-17.57,17.49-.13.04-.27.06-.41.06"/>
          <path id="Trazado_128" data-name="Trazado 128" class="cls-3" d="M88.17,118.4h-6.48c-2.6-.06-4.66-2.23-4.6-4.83.06-2.51,2.08-4.53,4.6-4.6h6.48c2.6-.06,4.76,1.99,4.83,4.6s-1.99,4.76-4.6,4.83c-.08,0-.16,0-.23,0M81.69,111.77c-1.05,0-1.91.86-1.91,1.91,0,1.05.85,1.91,1.91,1.91h6.48c1.05,0,1.91-.85,1.91-1.91s-.85-1.91-1.91-1.91h-6.48Z"/>
          <path id="Trazado_129" data-name="Trazado 129" class="cls-3" d="M106.54,98.98c-1.09.02-2.13-.44-2.86-1.26-.71-.84-1.09-1.91-1.05-3.01v-21.88c-.11-2.24,1.63-4.15,3.87-4.25.65-.03,1.3.1,1.9.37l5.25,2.12c2.73,1.23,4.53,3.89,4.65,6.88v11.65c-.12,2.98-1.92,5.64-4.64,6.86l-5.25,2.14c-.59.24-1.22.37-1.86.38M106.54,71.38c-1,0-1.1,1.02-1.1,1.46v21.88c-.02.41.1.82.35,1.15.33.37.83.44,1.59.13l5.23-2.13c1.66-.8,2.76-2.43,2.88-4.27v-11.65c-.13-1.84-1.23-3.47-2.88-4.27l-5.26-2.12c-.25-.11-.53-.17-.8-.18"/>
          <path id="Trazado_130" data-name="Trazado 130" class="cls-3" d="M53.46,98.98c-.63,0-1.25-.13-1.83-.37l-5.28-2.15c-2.72-1.22-4.52-3.88-4.64-6.86v-11.64c.13-2.98,1.92-5.64,4.64-6.87l5.26-2.12c2.04-.94,4.45-.05,5.4,1.98.27.59.4,1.25.37,1.9v21.88c.03,1.1-.35,2.17-1.06,3.01-.72.81-1.77,1.27-2.86,1.26M53.46,71.38c-.28,0-.55.07-.8.18l-5.26,2.12c-1.66.8-2.76,2.43-2.88,4.27v11.65c.12,1.84,1.23,3.46,2.88,4.26l5.27,2.15c.72.27,1.24.22,1.55-.14.25-.33.38-.74.36-1.15v-21.89c0-.44-.11-1.46-1.11-1.46"/>
        </g>
      </g>
    </g>
  </g>
</svg>