<?xml version="1.0" encoding="UTF-8"?>
<svg id="Capa_1" data-name="Capa 1" xmlns="http://www.w3.org/2000/svg" version="1.1" viewBox="0 0 160 160">
  <defs>
    <style>
      .cls-1 {
        fill: #47a5bb;
      }

      .cls-1, .cls-2 {
        stroke-width: 0px;
      }

      .cls-2 {
        fill: #fff;
      }
    </style>
  </defs>
  <path id="Trazado_120" data-name="Trazado 120" class="cls-1" d="M111.43,11.27C73.6-6.16,28.8,10.38,11.37,48.21c-13.53,29.37-6.83,64.1,16.65,86.33l-7.79,16.89,20.12-7.42c2.55,1.58,5.2,3.02,7.92,4.29,38.03,17.02,82.66,0,99.68-38.04,16.76-37.44.53-81.41-36.53-98.99"/>
  <path id="Trazado_121" data-name="Trazado 121" class="cls-2" d="M110.27,49.38c-16.06-16.06-42.09-16.05-58.15,0-16.06,16.06-16.05,42.09,0,58.15,16.06,16.06,42.09,16.05,58.15,0,7.71-7.71,12.04-18.17,12.04-29.07.03-10.91-4.31-21.38-12.05-29.08M48.05,58.44c4.74,1.11,9.53,1.94,14.36,2.51-1.22,5.35-1.87,10.81-1.93,16.3h-17.98c.19-6.64,2.1-13.13,5.54-18.81M42.49,79.66h17.97c.06,6.39.93,12.74,2.61,18.9-4.53.51-9.04,1.26-13.49,2.24-4.4-6.19-6.87-13.55-7.09-21.14M53.8,105.82c-.93-.93-1.81-1.9-2.63-2.9,3.99-.85,8.22-1.52,12.59-2,.69,2.15,1.54,4.26,2.52,6.29,1.57,3.45,3.84,6.54,6.67,9.08-7.26-1.57-13.91-5.2-19.15-10.46M79.97,117.08c-4.29-.6-8.34-4.43-11.52-10.92-.87-1.78-1.61-3.61-2.23-5.49,4.47-.42,9.08-.66,13.75-.69v17.1ZM65.48,98.31c-1.68-6.08-2.56-12.34-2.61-18.65h17.1v17.89c-4.93.04-9.78.29-14.49.75M79.97,77.25h-17.1c.06-5.4.71-10.77,1.94-16.03,4.93.5,10,.78,15.17.82v15.21ZM79.97,59.62c-4.96-.04-9.84-.29-14.55-.77.62-2.22,1.4-4.4,2.32-6.52.27-.61,0-1.32-.62-1.59-.61-.27-1.32,0-1.59.62-1.02,2.34-1.86,4.76-2.53,7.22-4.56-.52-9.08-1.29-13.56-2.3,1.3-1.85,2.77-3.59,4.37-5.19,5.24-5.26,11.88-8.89,19.13-10.46-1.85,1.61-3.44,3.5-4.71,5.59-.38.54-.26,1.29.29,1.68s1.29.26,1.68-.29c.02-.03.05-.07.07-.1,3.5-5.53,7.04-7.29,9.71-7.67v19.78ZM119.89,77.25h-17.97c-.06-5.49-.7-10.95-1.93-16.3,4.83-.56,9.62-1.4,14.35-2.51,3.45,5.68,5.36,12.17,5.55,18.81M108.58,51.09c1.6,1.6,3.05,3.34,4.35,5.2-4.47,1.01-8.99,1.78-13.55,2.3-.82-3.06-1.93-6.03-3.3-8.88-1.58-3.45-3.85-6.54-6.67-9.08,7.25,1.57,13.9,5.2,19.13,10.46M93.89,50.76c1.26,2.6,2.27,5.31,3.04,8.09-4.72.47-9.6.73-14.55.77v-19.78c4.29.6,8.34,4.43,11.51,10.92M82.38,62.03c5.17-.04,10.26-.32,15.17-.82,1.22,5.26,1.87,10.64,1.93,16.04h-17.1v-15.21ZM82.38,117.08v-17.1c4.66.03,9.28.26,13.74.69-1.07,3.32-2.58,6.49-4.48,9.42-2,3.51-5.36,6.04-9.28,7M108.54,105.83c-5.24,5.26-11.89,8.9-19.15,10.46,1.64-1.42,3.07-3.05,4.25-4.87,2.12-3.26,3.78-6.79,4.93-10.5,4.37.48,8.6,1.16,12.59,2-.83,1-1.71,1.98-2.64,2.9M112.78,100.8c-4.46-.98-8.96-1.73-13.49-2.24.64-2.31,1.16-4.66,1.54-7.03.11-.66-.34-1.28-.99-1.39-.66-.11-1.28.34-1.39.99h0c-.4,2.42-.94,4.81-1.61,7.16-4.71-.46-9.57-.71-14.48-.75v-17.89h17.1c-.03,2.03-.13,4.03-.31,6-.06.66.42,1.25,1.08,1.31,0,0,0,0,0,0h.11c.62,0,1.14-.48,1.2-1.1.18-2.04.29-4.13.32-6.22h17.97c-.22,7.59-2.68,14.94-7.07,21.14"/>
  <path id="Trazado_122" data-name="Trazado 122" class="cls-2" d="M128.16,110.67c-.14-.29-.33-.55-.56-.78l-19.53-19.3c-1.16-1.19-1.87-1.41-2.84-.98s-1.27,1.12-1.14,2.77l1.58,27.41c.02.32.09.63.22.93.34.81,1.27,1.18,2.08.84.04-.02.08-.04.12-.06l7.51-3.39,3.62,8.15c.3.67.96,1.1,1.7,1.1.26,0,.52-.05.75-.16.94-.41,1.36-1.51.95-2.44,0,0,0,0,0,0l-3.62-8.16,8.3-3.77c.82-.31,1.23-1.22.92-2.04-.02-.04-.03-.09-.05-.13"/>
</svg>